M48
; DRILL file {KiCad (5.1.9)-1} date 11/22/21 08:04:20
; FORMAT={-:-/ absolute / inch / decimal}
; #@! TF.CreationDate,2021-11-22T08:04:20-03:00
; #@! TF.GenerationSoftware,Kicad,Pcbnew,(5.1.9)-1
; #@! TF.FileFunction,Plated,1,2,PTH
FMAT,2
INCH
T1C0.0315
T2C0.0354
T3C0.0394
T4C0.0433
T5C0.0472
T6C0.0512
T7C0.0591
T8C0.0598
T9C0.0630
T10C0.0709
T11C0.0787
%
G90
G05
T1
X1.6831Y-4.6457
X1.6866Y-3.7008
X1.7028Y-3.4252
X1.7028Y-4.0354
X1.7028Y-4.3209
X1.7126Y-3.2283
X1.7126Y-5.0
X1.7126Y-5.2165
X1.7815Y-4.6457
X2.0177Y-4.6555
X2.0866Y-3.7008
X2.1028Y-3.4252
X2.1028Y-4.0354
X2.1028Y-4.3209
X2.1063Y-5.0
X2.1126Y-3.2283
X2.1126Y-5.2165
X2.1161Y-4.6555
X2.2736Y-3.435
X2.2772Y-3.2283
X2.2835Y-3.7008
X2.3524Y-5.0591
X2.3524Y-5.2953
X2.3524Y-5.5413
X2.3524Y-5.7776
X2.372Y-4.0059
X2.372Y-4.1059
X2.372Y-4.2059
X2.372Y-4.3059
X2.372Y-4.4059
X2.372Y-4.5059
X2.372Y-4.6059
X2.372Y-4.7059
X2.5197Y-2.7953
X2.672Y-4.0059
X2.672Y-4.1059
X2.672Y-4.2059
X2.672Y-4.3059
X2.672Y-4.4059
X2.672Y-4.5059
X2.672Y-4.6059
X2.672Y-4.7059
X2.6736Y-3.435
X2.6772Y-3.2283
X2.6835Y-3.7008
X2.7362Y-2.5591
X2.7524Y-5.0591
X2.7524Y-5.2953
X2.7524Y-5.5413
X2.7524Y-5.7776
X2.7756Y-1.7654
X2.7756Y-2.1654
X2.8839Y-4.1866
X2.8839Y-4.5866
X2.9197Y-2.7953
X2.9366Y-3.4547
X2.9429Y-3.248
X2.9823Y-4.7673
X2.9823Y-5.1673
X2.9921Y-1.9587
X2.9921Y-2.3587
X2.9921Y-3.6157
X2.9921Y-4.0157
X3.0906Y-4.1866
X3.0906Y-4.5866
X3.1252Y-5.1575
X3.1299Y-2.5591
X3.1449Y-4.0059
X3.2185Y-2.0374
X3.2185Y-2.3374
X3.2185Y-4.8622
X3.2283Y-3.7205
X3.3169Y-4.1866
X3.3169Y-4.5866
X3.3185Y-4.7622
X3.3283Y-3.6205
X3.3366Y-3.4547
X3.3429Y-3.248
X3.4185Y-4.8622
X3.4252Y-5.1575
X3.4283Y-3.7205
X3.4449Y-4.0059
X3.5138Y-1.752
X3.5138Y-2.1457
X3.5236Y-1.2142
X3.5236Y-1.6142
X3.5335Y-4.1866
X3.5335Y-4.5866
X4.1142Y-1.1417
X4.1142Y-2.8051
X4.1142Y-2.9051
X4.1193Y-2.5575
X4.1193Y-2.6575
X4.4142Y-2.8051
X4.4142Y-2.9051
X4.4193Y-2.5575
X4.4193Y-2.6575
X4.5079Y-1.1417
X4.5524Y-2.6575
X4.8524Y-2.6575
X5.0591Y-1.2634
X5.0591Y-1.6634
X5.0591Y-2.0508
X5.0591Y-2.4508
X5.2461Y-2.0508
X5.2461Y-2.4508
X5.2559Y-2.6378
X5.6559Y-2.6378
X6.5157Y-2.9331
X6.6157Y-2.8331
X6.7157Y-2.9331
X6.811Y-2.2638
X6.811Y-2.6638
X7.2016Y-3.0709
X7.3016Y-3.1709
X7.4016Y-3.0709
X7.4984Y-4.3094
X7.5197Y-4.0551
X7.5984Y-4.2094
X7.5984Y-4.4094
X7.6331Y-5.4232
X7.7854Y-5.1476
X7.7854Y-5.2461
X7.8134Y-4.3094
X7.9134Y-2.9134
X7.9134Y-4.2094
X7.9134Y-4.4094
X7.9197Y-4.0551
X7.9331Y-5.4232
X8.0134Y-2.8134
X8.0315Y-3.5039
X8.0315Y-3.9039
X8.0512Y-2.2736
X8.0512Y-2.6736
X8.0512Y-4.6654
X8.0744Y-4.9311
X8.1004Y-5.128
X8.1134Y-2.9134
X8.1189Y-4.1339
X8.1189Y-4.4339
X8.1299Y-5.3051
X8.2189Y-4.1339
X8.2189Y-4.4339
X8.3189Y-4.1339
X8.3189Y-4.4339
X8.3661Y-2.1555
X8.3661Y-2.5555
X8.3858Y-3.5039
X8.3858Y-3.9039
X8.4055Y-1.8898
X8.4154Y-1.224
X8.4154Y-1.624
X8.4189Y-4.1339
X8.4189Y-4.4339
X8.4299Y-5.3051
X8.4512Y-4.6654
X8.4744Y-4.9311
X8.5004Y-5.128
X8.5024Y-2.7937
X8.5055Y-1.7898
X8.5189Y-4.1339
X8.5189Y-4.4339
X8.6024Y-2.6937
X8.6024Y-2.8937
X8.6055Y-1.8898
X8.6189Y-4.1339
X8.6189Y-4.4339
X8.6909Y-3.1594
X8.6961Y-3.3465
X8.7189Y-4.1339
X8.7189Y-4.4339
X8.7402Y-3.5039
X8.7402Y-3.8976
X8.8189Y-4.1339
X8.8189Y-4.4339
X8.8287Y-5.3937
X8.8535Y-1.239
X8.8535Y-1.439
X8.8535Y-1.639
X8.8535Y-1.939
X8.8535Y-2.1543
X8.8535Y-2.3543
X8.8535Y-2.5543
X8.8535Y-2.8543
X8.9469Y-5.0886
X8.9469Y-5.187
X8.9961Y-3.3465
X9.0634Y-4.3882
X9.0909Y-3.1594
X9.0945Y-3.5075
X9.0945Y-3.9075
X9.098Y-4.1339
X9.1287Y-5.3937
X9.1535Y-1.239
X9.1535Y-1.439
X9.1535Y-1.639
X9.1535Y-1.939
X9.1535Y-2.1543
X9.1535Y-2.3543
X9.1535Y-2.5543
X9.1535Y-2.8543
X9.1634Y-4.2882
X9.1634Y-4.4882
X9.2224Y-3.1594
X9.2224Y-3.3465
X9.2224Y-4.9114
X9.2555Y-4.6752
X9.2717Y-5.1673
X9.311Y-5.4035
X9.398Y-4.3882
X9.4783Y-3.5236
X9.4783Y-3.622
X9.4783Y-3.8091
X9.4783Y-3.9075
X9.498Y-4.1339
X9.498Y-4.2882
X9.498Y-4.4882
X9.611Y-5.4035
X9.6224Y-3.1594
X9.6224Y-3.3465
X9.6224Y-4.9114
X9.6555Y-4.6752
X9.6717Y-5.1673
T2
X5.0Y-2.6476
X5.0689Y-1.8094
X5.0689Y-1.9094
X5.1Y-2.6476
T3
X1.8701Y-1.5748
X1.8701Y-2.3622
X2.1457Y-1.5157
X2.1457Y-2.1157
X7.4409Y-3.7008
X7.6248Y-4.6654
X7.6378Y-3.7008
X7.7248Y-4.6654
X7.8248Y-4.6654
X8.8059Y-4.6752
X8.9059Y-4.6752
X9.0059Y-4.6752
T4
X2.3031Y-1.2598
X2.3031Y-1.6598
X2.3031Y-1.9685
X2.3031Y-2.3685
X2.5787Y-1.2598
X2.5787Y-1.6598
X2.5787Y-1.9685
X2.5787Y-2.3685
X3.235Y-5.7185
X3.3335Y-2.5197
X3.335Y-5.7185
X3.4335Y-2.5197
X3.435Y-5.7185
X3.5335Y-2.5197
X3.8945Y-5.7185
X3.9945Y-5.7185
X4.0945Y-5.7185
X4.5146Y-5.7185
X4.6146Y-5.7185
X4.7146Y-5.7185
X5.1346Y-5.7185
X5.2346Y-5.7185
X5.3346Y-5.7185
X5.9449Y-2.8346
X6.128Y-2.4492
X6.3449Y-2.8346
X6.5295Y-2.4492
X7.2378Y-2.8346
X7.3878Y-2.4492
X7.5429Y-4.9311
X7.6378Y-2.8346
X7.6937Y-5.7087
X7.7894Y-2.4492
X7.7937Y-5.7087
X7.8937Y-5.7087
X7.9429Y-4.9311
X8.2744Y-5.7087
X8.3744Y-5.7087
X8.4744Y-5.7087
X8.6024Y-2.1654
X8.6024Y-2.5654
X8.6319Y-1.2205
X8.6319Y-1.6205
X8.6551Y-4.9114
X8.8453Y-5.7087
X8.9453Y-5.7087
X9.0453Y-5.7087
X9.0551Y-4.9114
X9.3965Y-5.7087
X9.4965Y-5.7087
X9.5965Y-5.7087
T5
X3.0906Y-1.3091
X3.0906Y-1.6043
X5.7776Y-5.4626
X6.0728Y-5.4626
X6.7913Y-3.248
X6.7913Y-3.5433
T6
X9.5276Y-1.25
X9.5276Y-1.4469
X9.5276Y-1.6437
X9.5276Y-1.8406
X9.5276Y-2.0374
X9.5276Y-2.2343
X9.5276Y-2.4311
X9.5276Y-2.628
X9.5276Y-2.8248
T7
X3.8484Y-1.3583
X3.8484Y-1.5551
X3.8484Y-1.752
X3.8484Y-1.9488
X3.8484Y-2.1457
X3.8484Y-2.3425
X4.0224Y-4.2341
X4.0224Y-5.1181
X4.2193Y-4.2341
X4.2193Y-5.1181
X4.4161Y-4.2341
X4.4161Y-5.1181
X4.613Y-4.2341
X4.613Y-5.1181
X4.7933Y-1.3583
X4.7933Y-1.5551
X4.7933Y-1.752
X4.7933Y-1.9488
X4.7933Y-2.1457
X4.7933Y-2.3425
X4.8098Y-4.2341
X4.8098Y-5.1181
X5.0098Y-4.2341
X5.0098Y-5.1181
X7.2638Y-4.7835
X7.2638Y-5.6732
T8
X1.8996Y-1.1909
X1.8996Y-1.3909
X1.8996Y-2.5394
X1.8996Y-2.7394
X5.5413Y-2.2213
X5.5413Y-2.4213
X6.2469Y-1.2402
X6.4469Y-1.2402
X6.5945Y-4.9606
X6.5945Y-5.4626
X6.7945Y-4.9606
X6.7945Y-5.4626
X7.5362Y-1.2598
X7.7362Y-1.2598
T9
X5.3051Y-1.2898
X5.3051Y-1.8898
X5.5807Y-1.2598
X5.5807Y-2.0598
X5.9783Y-1.9508
X6.3287Y-2.5492
X6.6791Y-1.5516
X6.6791Y-1.8508
X7.2382Y-1.9508
X7.5886Y-2.5492
X7.939Y-1.5516
X7.939Y-1.8508
T10
X5.6432Y-4.1732
X5.6432Y-4.5472
X5.8382Y-4.1732
X5.8382Y-4.5472
X6.0082Y-4.1732
X6.0082Y-4.5472
X6.1982Y-4.1732
X6.1982Y-4.5472
T11
X3.7504Y-3.2283
X3.7504Y-3.7598
X4.3504Y-3.2283
X4.3504Y-3.7598
X4.6657Y-3.2283
X4.6657Y-3.7598
X5.2657Y-3.2283
X5.2657Y-3.7598
X5.6102Y-4.9016
X5.9055Y-3.3071
X5.9055Y-3.7008
X6.2102Y-4.9016
X6.8504Y-4.0748
X6.8504Y-4.4685
T0
M30
