%TF.GenerationSoftware,KiCad,Pcbnew,(5.1.9)-1*%
%TF.CreationDate,2021-11-22T08:04:15-03:00*%
%TF.ProjectId,inversor 1.2,696e7665-7273-46f7-9220-312e322e6b69,rev?*%
%TF.SameCoordinates,Original*%
%TF.FileFunction,Copper,L1,Top*%
%TF.FilePolarity,Positive*%
%FSLAX46Y46*%
G04 Gerber Fmt 4.6, Leading zero omitted, Abs format (unit mm)*
G04 Created by KiCad (PCBNEW (5.1.9)-1) date 2021-11-22 08:04:15*
%MOMM*%
%LPD*%
G01*
G04 APERTURE LIST*
%TA.AperFunction,ComponentPad*%
%ADD10O,2.000000X2.000000*%
%TD*%
%TA.AperFunction,ComponentPad*%
%ADD11C,2.000000*%
%TD*%
%TA.AperFunction,ComponentPad*%
%ADD12O,1.600000X1.600000*%
%TD*%
%TA.AperFunction,ComponentPad*%
%ADD13C,1.600000*%
%TD*%
%TA.AperFunction,ComponentPad*%
%ADD14O,1.600000X2.400000*%
%TD*%
%TA.AperFunction,ComponentPad*%
%ADD15R,1.600000X2.400000*%
%TD*%
%TA.AperFunction,ComponentPad*%
%ADD16O,2.400000X1.600000*%
%TD*%
%TA.AperFunction,ComponentPad*%
%ADD17R,2.400000X1.600000*%
%TD*%
%TA.AperFunction,ComponentPad*%
%ADD18C,4.000000*%
%TD*%
%TA.AperFunction,ComponentPad*%
%ADD19R,4.000000X4.000000*%
%TD*%
%TA.AperFunction,ComponentPad*%
%ADD20C,3.000000*%
%TD*%
%TA.AperFunction,ComponentPad*%
%ADD21R,3.000000X3.000000*%
%TD*%
%TA.AperFunction,ComponentPad*%
%ADD22R,2.000000X2.000000*%
%TD*%
%TA.AperFunction,ComponentPad*%
%ADD23R,1.500000X1.500000*%
%TD*%
%TA.AperFunction,ComponentPad*%
%ADD24C,1.500000*%
%TD*%
%TA.AperFunction,ComponentPad*%
%ADD25R,1.600000X1.600000*%
%TD*%
%TA.AperFunction,ComponentPad*%
%ADD26R,2.400000X2.400000*%
%TD*%
%TA.AperFunction,ComponentPad*%
%ADD27C,2.400000*%
%TD*%
%TA.AperFunction,ComponentPad*%
%ADD28R,2.200000X2.200000*%
%TD*%
%TA.AperFunction,ComponentPad*%
%ADD29O,2.200000X2.200000*%
%TD*%
%TA.AperFunction,ComponentPad*%
%ADD30R,3.200000X3.200000*%
%TD*%
%TA.AperFunction,ComponentPad*%
%ADD31O,3.200000X3.200000*%
%TD*%
%TA.AperFunction,ComponentPad*%
%ADD32C,1.800000*%
%TD*%
%TA.AperFunction,ComponentPad*%
%ADD33R,1.800000X1.800000*%
%TD*%
%TA.AperFunction,ComponentPad*%
%ADD34R,2.500000X2.500000*%
%TD*%
%TA.AperFunction,ComponentPad*%
%ADD35C,2.500000*%
%TD*%
%TA.AperFunction,ComponentPad*%
%ADD36R,1.600000X1.800000*%
%TD*%
%TA.AperFunction,ComponentPad*%
%ADD37O,1.800000X1.800000*%
%TD*%
%TA.AperFunction,ComponentPad*%
%ADD38O,1.905000X2.000000*%
%TD*%
%TA.AperFunction,ComponentPad*%
%ADD39R,1.905000X2.000000*%
%TD*%
%TA.AperFunction,ComponentPad*%
%ADD40C,3.200000*%
%TD*%
%TA.AperFunction,Conductor*%
%ADD41C,0.750000*%
%TD*%
%TA.AperFunction,Conductor*%
%ADD42C,1.000000*%
%TD*%
%TA.AperFunction,Conductor*%
%ADD43C,1.750000*%
%TD*%
G04 APERTURE END LIST*
D10*
%TO.P,R23,2*%
%TO.N,FASE*%
X54500000Y-53740000D03*
D11*
%TO.P,R23,1*%
%TO.N,Net-(D13-Pad2)*%
X54500000Y-38500000D03*
%TD*%
D12*
%TO.P,R26,2*%
%TO.N,+B*%
X89500000Y-30840000D03*
D13*
%TO.P,R26,1*%
%TO.N,Net-(C15-Pad1)*%
X89500000Y-41000000D03*
%TD*%
D14*
%TO.P,U2,16*%
%TO.N,Net-(C18-Pad1)*%
X224000000Y-112620000D03*
%TO.P,U2,8*%
%TO.N,SS*%
X206220000Y-105000000D03*
%TO.P,U2,15*%
%TO.N,+12V*%
X221460000Y-112620000D03*
%TO.P,U2,7*%
%TO.N,Net-(C10-Pad1)*%
X208760000Y-105000000D03*
%TO.P,U2,14*%
%TO.N,Net-(R35-Pad2)*%
X218920000Y-112620000D03*
%TO.P,U2,6*%
%TO.N,Net-(R17-Pad2)*%
X211300000Y-105000000D03*
%TO.P,U2,13*%
%TO.N,+12V*%
X216380000Y-112620000D03*
%TO.P,U2,5*%
%TO.N,Net-(C10-Pad1)*%
X213840000Y-105000000D03*
%TO.P,U2,12*%
%TO.N,GND*%
X213840000Y-112620000D03*
%TO.P,U2,4*%
%TO.N,Net-(U2-Pad4)*%
X216380000Y-105000000D03*
%TO.P,U2,11*%
%TO.N,Net-(R18-Pad2)*%
X211300000Y-112620000D03*
%TO.P,U2,3*%
%TO.N,Net-(U2-Pad3)*%
X218920000Y-105000000D03*
%TO.P,U2,10*%
%TO.N,GND*%
X208760000Y-112620000D03*
%TO.P,U2,2*%
%TO.N,Net-(C18-Pad1)*%
X221460000Y-105000000D03*
%TO.P,U2,9*%
%TO.N,Net-(U2-Pad1)*%
X206220000Y-112620000D03*
D15*
%TO.P,U2,1*%
X224000000Y-105000000D03*
%TD*%
D16*
%TO.P,U1,16*%
%TO.N,2IN+*%
X67870000Y-101750000D03*
%TO.P,U1,8*%
%TO.N,+12V*%
X60250000Y-119530000D03*
%TO.P,U1,15*%
%TO.N,2IN-*%
X67870000Y-104290000D03*
%TO.P,U1,7*%
%TO.N,GND*%
X60250000Y-116990000D03*
%TO.P,U1,14*%
%TO.N,VREF*%
X67870000Y-106830000D03*
%TO.P,U1,6*%
%TO.N,Net-(R5-Pad2)*%
X60250000Y-114450000D03*
%TO.P,U1,13*%
%TO.N,VREF*%
X67870000Y-109370000D03*
%TO.P,U1,5*%
%TO.N,Net-(C5-Pad1)*%
X60250000Y-111910000D03*
%TO.P,U1,12*%
%TO.N,+12V*%
X67870000Y-111910000D03*
%TO.P,U1,4*%
%TO.N,Net-(C1-Pad2)*%
X60250000Y-109370000D03*
%TO.P,U1,11*%
%TO.N,+12V*%
X67870000Y-114450000D03*
%TO.P,U1,3*%
%TO.N,Net-(R7-Pad1)*%
X60250000Y-106830000D03*
%TO.P,U1,10*%
%TO.N,Net-(D8-Pad2)*%
X67870000Y-116990000D03*
%TO.P,U1,2*%
%TO.N,Net-(R6-Pad2)*%
X60250000Y-104290000D03*
%TO.P,U1,9*%
%TO.N,Net-(D7-Pad2)*%
X67870000Y-119530000D03*
D17*
%TO.P,U1,1*%
%TO.N,VFB*%
X60250000Y-101750000D03*
%TD*%
D10*
%TO.P,C12,2*%
%TO.N,FASE-NEUTRO*%
X47500000Y-60000000D03*
D11*
%TO.P,C12,1*%
%TO.N,FASE*%
X47500000Y-40000000D03*
%TD*%
D18*
%TO.P,C11,2*%
%TO.N,GND*%
X174000000Y-113500000D03*
D19*
%TO.P,C11,1*%
%TO.N,330VDC*%
X174000000Y-103500000D03*
%TD*%
D18*
%TO.P,C17,2*%
%TO.N,GND*%
X150000000Y-94000000D03*
D19*
%TO.P,C17,1*%
%TO.N,330VDC*%
X150000000Y-84000000D03*
%TD*%
D20*
%TO.P,T2,3*%
%TO.N,Net-(Q11-Pad2)*%
X127250000Y-130000000D03*
%TO.P,T2,4*%
%TO.N,Net-(D11-Pad2)*%
X127250000Y-107547000D03*
%TO.P,T2,~*%
%TO.N,N/C*%
X122170000Y-107547000D03*
X117170000Y-107547000D03*
X112170000Y-107547000D03*
X107170000Y-107547000D03*
%TO.P,T2,5*%
%TO.N,Net-(D10-Pad1)*%
X102170000Y-107547000D03*
%TO.P,T2,1*%
%TO.N,Net-(Q8-Pad2)*%
X102170000Y-130000000D03*
X107170000Y-130000000D03*
%TO.P,T2,2*%
%TO.N,Net-(C9-Pad1)*%
X112170000Y-130000000D03*
X117170000Y-130000000D03*
%TO.P,T2,3*%
%TO.N,Net-(Q11-Pad2)*%
X122170000Y-130000000D03*
%TD*%
D12*
%TO.P,R5,2*%
%TO.N,Net-(R5-Pad2)*%
X53660000Y-132500000D03*
D13*
%TO.P,R5,1*%
%TO.N,GND*%
X43500000Y-132500000D03*
%TD*%
D20*
%TO.P,T1,3*%
%TO.N,Net-(C14-Pad2)*%
X97750000Y-54500000D03*
%TO.P,T1,4*%
%TO.N,-B*%
X97750000Y-59500000D03*
%TO.P,T1,2*%
%TO.N,Net-(C15-Pad2)*%
X97750000Y-44500000D03*
%TO.P,T1,~*%
%TO.N,N/C*%
X97750000Y-49500000D03*
%TO.P,T1,1*%
%TO.N,+B*%
X97750000Y-34500000D03*
%TO.P,T1,~*%
%TO.N,Net-(T1-Pad~)*%
X97750000Y-39500000D03*
%TO.P,T1,6*%
%TO.N,Net-(C4-Pad2)*%
X121750000Y-34500000D03*
X121750000Y-39500000D03*
%TO.P,T1,~*%
%TO.N,N/C*%
X121750000Y-44500000D03*
%TO.P,T1,5*%
%TO.N,GND*%
X121750000Y-54500000D03*
X121750000Y-59500000D03*
%TO.P,T1,~*%
%TO.N,N/C*%
X121750000Y-49500000D03*
%TD*%
%TO.P,J6,1*%
%TO.N,FASE-NEUTRO*%
X48250000Y-69580000D03*
D21*
X48250000Y-64500000D03*
%TD*%
D12*
%TO.P,TH3,2*%
%TO.N,2IN+*%
X67910000Y-87250000D03*
D13*
%TO.P,TH3,1*%
%TO.N,Net-(R43-Pad1)*%
X57750000Y-87250000D03*
%TD*%
D11*
%TO.P,C6,2*%
%TO.N,GND*%
X194000000Y-94000000D03*
D22*
%TO.P,C6,1*%
%TO.N,VON*%
X189000000Y-94000000D03*
%TD*%
D23*
%TO.P,Q22,1*%
%TO.N,Net-(D29-Pad2)*%
X201000000Y-74000000D03*
D24*
%TO.P,Q22,3*%
%TO.N,GND*%
X206080000Y-74000000D03*
%TO.P,Q22,2*%
%TO.N,Net-(Q22-Pad2)*%
X203540000Y-71460000D03*
%TD*%
D23*
%TO.P,Q21,1*%
%TO.N,VBAT*%
X188000000Y-78000000D03*
D24*
%TO.P,Q21,3*%
%TO.N,V_5_SEG*%
X182920000Y-78000000D03*
%TO.P,Q21,2*%
%TO.N,VON*%
X185460000Y-80540000D03*
%TD*%
D23*
%TO.P,Q20,1*%
%TO.N,Net-(D28-Pad2)*%
X165500000Y-74500000D03*
D24*
%TO.P,Q20,3*%
%TO.N,GND*%
X170580000Y-74500000D03*
%TO.P,Q20,2*%
%TO.N,Net-(Q20-Pad2)*%
X168040000Y-71960000D03*
%TD*%
D23*
%TO.P,Q19,1*%
%TO.N,GND*%
X241250000Y-114000000D03*
D24*
%TO.P,Q19,3*%
%TO.N,~PWM*%
X241250000Y-108920000D03*
%TO.P,Q19,2*%
%TO.N,Net-(Q18-Pad2)*%
X238710000Y-111460000D03*
%TD*%
D23*
%TO.P,Q18,1*%
%TO.N,+12V*%
X232750000Y-114000000D03*
D24*
%TO.P,Q18,3*%
%TO.N,~PWM*%
X232750000Y-108920000D03*
%TO.P,Q18,2*%
%TO.N,Net-(Q18-Pad2)*%
X230210000Y-111460000D03*
%TD*%
D23*
%TO.P,Q17,1*%
%TO.N,GND*%
X193000000Y-112000000D03*
D24*
%TO.P,Q17,3*%
%TO.N,PWM*%
X193000000Y-106920000D03*
%TO.P,Q17,2*%
%TO.N,Net-(Q16-Pad2)*%
X190460000Y-109460000D03*
%TD*%
D23*
%TO.P,Q16,1*%
%TO.N,+12V*%
X201000000Y-112000000D03*
D24*
%TO.P,Q16,3*%
%TO.N,PWM*%
X201000000Y-106920000D03*
%TO.P,Q16,2*%
%TO.N,Net-(Q16-Pad2)*%
X198460000Y-109460000D03*
%TD*%
D23*
%TO.P,Q15,1*%
%TO.N,Net-(D27-Pad2)*%
X213500000Y-48000000D03*
D24*
%TO.P,Q15,3*%
%TO.N,GND*%
X218580000Y-48000000D03*
%TO.P,Q15,2*%
%TO.N,Net-(Q15-Pad2)*%
X216040000Y-45460000D03*
%TD*%
D23*
%TO.P,Q14,1*%
%TO.N,Net-(D24-Pad1)*%
X218500000Y-73500000D03*
D24*
%TO.P,Q14,3*%
%TO.N,VBAT*%
X218500000Y-68420000D03*
%TO.P,Q14,2*%
%TO.N,Net-(Q14-Pad2)*%
X215960000Y-70960000D03*
%TD*%
D13*
%TO.P,C1,2*%
%TO.N,Net-(C1-Pad2)*%
X53750000Y-118250000D03*
D25*
%TO.P,C1,1*%
%TO.N,VREF*%
X51250000Y-118250000D03*
%TD*%
%TO.P,C2,1*%
%TO.N,Net-(C2-Pad1)*%
X197750000Y-130750000D03*
D13*
%TO.P,C2,2*%
%TO.N,INV1*%
X197750000Y-133250000D03*
%TD*%
%TO.P,C3,2*%
%TO.N,GND*%
X42750000Y-118000000D03*
D25*
%TO.P,C3,1*%
%TO.N,VREF*%
X45250000Y-118000000D03*
%TD*%
D13*
%TO.P,C4,1*%
%TO.N,+B*%
X104500000Y-29000000D03*
D12*
%TO.P,C4,2*%
%TO.N,Net-(C4-Pad2)*%
X114500000Y-29000000D03*
%TD*%
%TO.P,C5,2*%
%TO.N,GND*%
X43500000Y-127000000D03*
D13*
%TO.P,C5,1*%
%TO.N,Net-(C5-Pad1)*%
X53500000Y-127000000D03*
%TD*%
D25*
%TO.P,C7,1*%
%TO.N,Net-(C7-Pad1)*%
X227250000Y-129250000D03*
D13*
%TO.P,C7,2*%
%TO.N,INV2*%
X227250000Y-131750000D03*
%TD*%
%TO.P,C8,2*%
%TO.N,GND*%
X240750000Y-96750000D03*
D25*
%TO.P,C8,1*%
%TO.N,SS*%
X240750000Y-99250000D03*
%TD*%
D26*
%TO.P,C9,1*%
%TO.N,Net-(C9-Pad1)*%
X146750000Y-138750000D03*
D27*
%TO.P,C9,2*%
%TO.N,GND*%
X154250000Y-138750000D03*
%TD*%
D13*
%TO.P,C10,1*%
%TO.N,Net-(C10-Pad1)*%
X222000000Y-99000000D03*
D12*
%TO.P,C10,2*%
%TO.N,GND*%
X222000000Y-89000000D03*
%TD*%
D26*
%TO.P,C13,1*%
%TO.N,+B*%
X78500000Y-33250000D03*
D27*
%TO.P,C13,2*%
%TO.N,-B*%
X78500000Y-40750000D03*
%TD*%
D13*
%TO.P,C14,1*%
%TO.N,Net-(C14-Pad1)*%
X69500000Y-65000000D03*
D12*
%TO.P,C14,2*%
%TO.N,Net-(C14-Pad2)*%
X79500000Y-65000000D03*
%TD*%
%TO.P,C15,2*%
%TO.N,Net-(C15-Pad2)*%
X89250000Y-54500000D03*
D13*
%TO.P,C15,1*%
%TO.N,Net-(C15-Pad1)*%
X89250000Y-44500000D03*
%TD*%
D27*
%TO.P,C16,2*%
%TO.N,GND*%
X172500000Y-90000000D03*
D26*
%TO.P,C16,1*%
%TO.N,Net-(C16-Pad1)*%
X172500000Y-82500000D03*
%TD*%
D25*
%TO.P,C18,1*%
%TO.N,Net-(C18-Pad1)*%
X240750000Y-89500000D03*
D13*
%TO.P,C18,2*%
%TO.N,GND*%
X240750000Y-92000000D03*
%TD*%
D12*
%TO.P,D1,2*%
%TO.N,Net-(D1-Pad2)*%
X214120000Y-134750000D03*
D25*
%TO.P,D1,1*%
%TO.N,PWM*%
X206500000Y-134750000D03*
%TD*%
D28*
%TO.P,D2,1*%
%TO.N,Net-(C2-Pad1)*%
X191590000Y-125250000D03*
D29*
%TO.P,D2,2*%
%TO.N,+12V*%
X201750000Y-125250000D03*
%TD*%
D12*
%TO.P,D3,2*%
%TO.N,INV1*%
X193880000Y-137750000D03*
D25*
%TO.P,D3,1*%
%TO.N,Net-(D3-Pad1)*%
X201500000Y-137750000D03*
%TD*%
%TO.P,D4,1*%
%TO.N,Net-(D4-Pad1)*%
X224250000Y-137000000D03*
D12*
%TO.P,D4,2*%
%TO.N,INV2*%
X231870000Y-137000000D03*
%TD*%
D29*
%TO.P,D5,2*%
%TO.N,+12V*%
X219840000Y-124750000D03*
D28*
%TO.P,D5,1*%
%TO.N,Net-(C7-Pad1)*%
X230000000Y-124750000D03*
%TD*%
D25*
%TO.P,D6,1*%
%TO.N,~PWM*%
X236500000Y-137250000D03*
D12*
%TO.P,D6,2*%
%TO.N,Net-(D6-Pad2)*%
X244120000Y-137250000D03*
%TD*%
%TO.P,D7,2*%
%TO.N,Net-(D7-Pad2)*%
X79380000Y-131000000D03*
D25*
%TO.P,D7,1*%
%TO.N,Net-(D7-Pad1)*%
X87000000Y-131000000D03*
%TD*%
%TO.P,D8,1*%
%TO.N,Net-(D8-Pad1)*%
X87500000Y-101750000D03*
D12*
%TO.P,D8,2*%
%TO.N,Net-(D8-Pad2)*%
X79880000Y-101750000D03*
%TD*%
D30*
%TO.P,D9,1*%
%TO.N,330VDC*%
X133750000Y-82000000D03*
D31*
%TO.P,D9,2*%
%TO.N,Net-(D10-Pad1)*%
X118510000Y-82000000D03*
%TD*%
%TO.P,D10,2*%
%TO.N,GND*%
X95260000Y-82000000D03*
D30*
%TO.P,D10,1*%
%TO.N,Net-(D10-Pad1)*%
X110500000Y-82000000D03*
%TD*%
%TO.P,D11,1*%
%TO.N,330VDC*%
X133750000Y-95500000D03*
D31*
%TO.P,D11,2*%
%TO.N,Net-(D11-Pad2)*%
X118510000Y-95500000D03*
%TD*%
%TO.P,D12,2*%
%TO.N,GND*%
X95260000Y-95500000D03*
D30*
%TO.P,D12,1*%
%TO.N,Net-(D11-Pad2)*%
X110500000Y-95500000D03*
%TD*%
D28*
%TO.P,D13,1*%
%TO.N,+B*%
X58500000Y-32000000D03*
D29*
%TO.P,D13,2*%
%TO.N,Net-(D13-Pad2)*%
X58500000Y-42160000D03*
%TD*%
D28*
%TO.P,D14,1*%
%TO.N,Net-(D13-Pad2)*%
X58500000Y-50000000D03*
D29*
%TO.P,D14,2*%
%TO.N,-B*%
X58500000Y-60160000D03*
%TD*%
%TO.P,D15,2*%
%TO.N,FASE-NEUTRO*%
X65500000Y-42160000D03*
D28*
%TO.P,D15,1*%
%TO.N,+B*%
X65500000Y-32000000D03*
%TD*%
%TO.P,D16,1*%
%TO.N,FASE-NEUTRO*%
X65500000Y-50000000D03*
D29*
%TO.P,D16,2*%
%TO.N,-B*%
X65500000Y-60160000D03*
%TD*%
D25*
%TO.P,D17,1*%
%TO.N,Net-(D17-Pad1)*%
X81750000Y-51750000D03*
D12*
%TO.P,D17,2*%
%TO.N,-B*%
X81750000Y-59370000D03*
%TD*%
D30*
%TO.P,D18,1*%
%TO.N,Net-(C16-Pad1)*%
X134750000Y-48000000D03*
D31*
%TO.P,D18,2*%
%TO.N,Net-(C4-Pad2)*%
X134750000Y-32760000D03*
%TD*%
D32*
%TO.P,D19,2*%
%TO.N,Net-(D19-Pad2)*%
X128750000Y-45960000D03*
D33*
%TO.P,D19,1*%
%TO.N,GND*%
X128750000Y-48500000D03*
%TD*%
%TO.P,D20,1*%
%TO.N,GND*%
X127000000Y-67250000D03*
D32*
%TO.P,D20,2*%
%TO.N,Net-(D20-Pad2)*%
X129540000Y-67250000D03*
%TD*%
D31*
%TO.P,D23,2*%
%TO.N,GND*%
X157740000Y-124500000D03*
D30*
%TO.P,D23,1*%
%TO.N,Net-(C9-Pad1)*%
X142500000Y-124500000D03*
%TD*%
D29*
%TO.P,D24,2*%
%TO.N,GND*%
X219250000Y-41160000D03*
D28*
%TO.P,D24,1*%
%TO.N,Net-(D24-Pad1)*%
X219250000Y-31000000D03*
%TD*%
D29*
%TO.P,D27,2*%
%TO.N,Net-(D27-Pad2)*%
X218500000Y-65160000D03*
D28*
%TO.P,D27,1*%
%TO.N,VBAT*%
X218500000Y-55000000D03*
%TD*%
D29*
%TO.P,D28,2*%
%TO.N,Net-(D28-Pad2)*%
X161160000Y-72000000D03*
D28*
%TO.P,D28,1*%
%TO.N,VBAT*%
X151000000Y-72000000D03*
%TD*%
%TO.P,D29,1*%
%TO.N,VBAT*%
X183840000Y-72000000D03*
D29*
%TO.P,D29,2*%
%TO.N,Net-(D29-Pad2)*%
X194000000Y-72000000D03*
%TD*%
D25*
%TO.P,DZ1,1*%
%TO.N,Net-(DZ1-Pad1)*%
X123250000Y-67500000D03*
D12*
%TO.P,DZ1,2*%
%TO.N,Net-(DZ1-Pad2)*%
X115630000Y-67500000D03*
%TD*%
D25*
%TO.P,DZ2,1*%
%TO.N,5V*%
X228500000Y-85000000D03*
D12*
%TO.P,DZ2,2*%
%TO.N,GND*%
X220880000Y-85000000D03*
%TD*%
D20*
%TO.P,F1,2*%
%TO.N,VBAT*%
X157434000Y-106000000D03*
X152608000Y-106000000D03*
%TO.P,F1,1*%
%TO.N,Net-(C9-Pad1)*%
X148290000Y-106000000D03*
X143337000Y-106000000D03*
%TD*%
%TO.P,F2,1*%
%TO.N,330VDC*%
X184500000Y-121500000D03*
%TO.P,F2,2*%
%TO.N,Net-(F2-Pad2)*%
X184500000Y-144100000D03*
%TD*%
%TO.P,F3,1*%
%TO.N,Net-(C9-Pad1)*%
X143337000Y-115500000D03*
X148290000Y-115500000D03*
%TO.P,F3,2*%
%TO.N,VBAT*%
X152608000Y-115500000D03*
X157434000Y-115500000D03*
%TD*%
%TO.P,J1,2*%
%TO.N,OUT1*%
X158670000Y-31500000D03*
D21*
%TO.P,J1,1*%
X163750000Y-31500000D03*
%TD*%
%TO.P,J2,1*%
%TO.N,OUT2*%
X196500000Y-32000000D03*
D20*
%TO.P,J2,2*%
X191420000Y-32000000D03*
%TD*%
%TO.P,J3,2*%
%TO.N,VBAT*%
X172580000Y-126000000D03*
D21*
%TO.P,J3,1*%
X167500000Y-126000000D03*
%TD*%
%TO.P,J4,1*%
%TO.N,GND*%
X167500000Y-138750000D03*
D20*
%TO.P,J4,2*%
X172580000Y-138750000D03*
%TD*%
D21*
%TO.P,J5,1*%
%TO.N,FASE*%
X48250000Y-30250000D03*
D20*
X48250000Y-35330000D03*
%TD*%
D34*
%TO.P,J7,1*%
%TO.N,NA1-RL1*%
X242000000Y-31750000D03*
D35*
%TO.P,J7,2*%
%TO.N,NF1-RL1*%
X242000000Y-36750000D03*
%TO.P,J7,3*%
%TO.N,COM1-RL1*%
X242000000Y-41750000D03*
%TO.P,J7,4*%
%TO.N,NA2-RL1*%
X242000000Y-46750000D03*
%TO.P,J7,5*%
%TO.N,NF2-RL1*%
X242000000Y-51750000D03*
%TO.P,J7,6*%
%TO.N,COM2-RL1*%
X242000000Y-56750000D03*
%TO.P,J7,7*%
%TO.N,NA1-RL2*%
X242000000Y-61750000D03*
%TO.P,J7,8*%
%TO.N,NF1-RL2*%
X242000000Y-66750000D03*
%TO.P,J7,9*%
%TO.N,COM1-RL2*%
X242000000Y-71750000D03*
%TD*%
D13*
%TO.P,K1,12*%
%TO.N,NF1-RL1*%
X232500000Y-36550000D03*
%TO.P,K1,14*%
%TO.N,NA1-RL1*%
X232500000Y-31470000D03*
%TO.P,K1,11*%
%TO.N,COM1-RL1*%
X232500000Y-41630000D03*
%TO.P,K1,A2*%
%TO.N,GND*%
X224880000Y-49250000D03*
D36*
%TO.P,K1,A1*%
%TO.N,Net-(D24-Pad1)*%
X232500000Y-49250000D03*
D13*
%TO.P,K1,24*%
%TO.N,NA2-RL1*%
X224880000Y-31470000D03*
%TO.P,K1,22*%
%TO.N,NF2-RL1*%
X224880000Y-36550000D03*
%TO.P,K1,21*%
%TO.N,COM2-RL1*%
X224880000Y-41630000D03*
%TD*%
%TO.P,K2,21*%
%TO.N,+12V*%
X224880000Y-64880000D03*
%TO.P,K2,22*%
%TO.N,Net-(K2-Pad22)*%
X224880000Y-59800000D03*
%TO.P,K2,24*%
%TO.N,VBAT*%
X224880000Y-54720000D03*
D36*
%TO.P,K2,A1*%
X232500000Y-72500000D03*
D13*
%TO.P,K2,A2*%
%TO.N,Net-(D27-Pad2)*%
X224880000Y-72500000D03*
%TO.P,K2,11*%
%TO.N,COM1-RL2*%
X232500000Y-64880000D03*
%TO.P,K2,14*%
%TO.N,NA1-RL2*%
X232500000Y-54720000D03*
%TO.P,K2,12*%
%TO.N,NF1-RL2*%
X232500000Y-59800000D03*
%TD*%
D20*
%TO.P,K3,11A*%
%TO.N,N/C*%
X160750000Y-64750000D03*
D11*
%TO.P,K3,A2*%
%TO.N,Net-(D28-Pad2)*%
X165850000Y-62210000D03*
D20*
%TO.P,K3,14*%
%TO.N,INV1*%
X169650000Y-47010000D03*
%TO.P,K3,12*%
%TO.N,FASE*%
X169650000Y-39410000D03*
%TO.P,K3,11B*%
%TO.N,OUT1*%
X151850000Y-49550000D03*
%TO.P,K3,A1*%
%TO.N,VBAT*%
%TA.AperFunction,ComponentPad*%
G36*
G01*
X155150000Y-61210000D02*
X156150000Y-61210000D01*
G75*
G02*
X156650000Y-61710000I0J-500000D01*
G01*
X156650000Y-62710000D01*
G75*
G02*
X156150000Y-63210000I-500000J0D01*
G01*
X155150000Y-63210000D01*
G75*
G02*
X154650000Y-62710000I0J500000D01*
G01*
X154650000Y-61710000D01*
G75*
G02*
X155150000Y-61210000I500000J0D01*
G01*
G37*
%TD.AperFunction*%
%TD*%
%TO.P,K4,A1*%
%TO.N,VBAT*%
%TA.AperFunction,ComponentPad*%
G36*
G01*
X187150000Y-61210000D02*
X188150000Y-61210000D01*
G75*
G02*
X188650000Y-61710000I0J-500000D01*
G01*
X188650000Y-62710000D01*
G75*
G02*
X188150000Y-63210000I-500000J0D01*
G01*
X187150000Y-63210000D01*
G75*
G02*
X186650000Y-62710000I0J500000D01*
G01*
X186650000Y-61710000D01*
G75*
G02*
X187150000Y-61210000I500000J0D01*
G01*
G37*
%TD.AperFunction*%
%TO.P,K4,11B*%
%TO.N,OUT2*%
X183850000Y-49550000D03*
%TO.P,K4,12*%
%TO.N,FASE-NEUTRO*%
X201650000Y-39410000D03*
%TO.P,K4,14*%
%TO.N,INV2*%
X201650000Y-47010000D03*
D11*
%TO.P,K4,A2*%
%TO.N,Net-(D29-Pad2)*%
X197850000Y-62210000D03*
D20*
%TO.P,K4,11A*%
%TO.N,N/C*%
X192750000Y-64750000D03*
%TD*%
D33*
%TO.P,Q1,1*%
%TO.N,Net-(Q1-Pad1)*%
X198750000Y-118500000D03*
D37*
%TO.P,Q1,2*%
%TO.N,Net-(D3-Pad1)*%
X196210000Y-118500000D03*
%TO.P,Q1,3*%
%TO.N,GND*%
X193670000Y-118500000D03*
%TD*%
D38*
%TO.P,Q2,3*%
%TO.N,INV1*%
X195420000Y-145000000D03*
%TO.P,Q2,2*%
%TO.N,Net-(F2-Pad2)*%
X197960000Y-145000000D03*
D39*
%TO.P,Q2,1*%
%TO.N,Net-(D3-Pad1)*%
X200500000Y-145000000D03*
%TD*%
%TO.P,Q3,1*%
%TO.N,Net-(D1-Pad2)*%
X215250000Y-145000000D03*
D38*
%TO.P,Q3,2*%
%TO.N,INV1*%
X212710000Y-145000000D03*
%TO.P,Q3,3*%
%TO.N,GND*%
X210170000Y-145000000D03*
%TD*%
%TO.P,Q4,3*%
%TO.N,INV2*%
X224670000Y-145000000D03*
%TO.P,Q4,2*%
%TO.N,Net-(F2-Pad2)*%
X227210000Y-145000000D03*
D39*
%TO.P,Q4,1*%
%TO.N,Net-(D4-Pad1)*%
X229750000Y-145000000D03*
%TD*%
D38*
%TO.P,Q5,3*%
%TO.N,GND*%
X238670000Y-145000000D03*
%TO.P,Q5,2*%
%TO.N,INV2*%
X241210000Y-145000000D03*
D39*
%TO.P,Q5,1*%
%TO.N,Net-(D6-Pad2)*%
X243750000Y-145000000D03*
%TD*%
D37*
%TO.P,Q6,3*%
%TO.N,GND*%
X223670000Y-118750000D03*
%TO.P,Q6,2*%
%TO.N,Net-(D4-Pad1)*%
X226210000Y-118750000D03*
D33*
%TO.P,Q6,1*%
%TO.N,Net-(Q6-Pad1)*%
X228750000Y-118750000D03*
%TD*%
D23*
%TO.P,Q7,1*%
%TO.N,GND*%
X81750000Y-123500000D03*
D24*
%TO.P,Q7,3*%
%TO.N,Net-(D7-Pad1)*%
X86830000Y-123500000D03*
%TO.P,Q7,2*%
%TO.N,Net-(D7-Pad2)*%
X84290000Y-120960000D03*
%TD*%
D39*
%TO.P,Q8,1*%
%TO.N,Net-(Q8-Pad1)*%
X87250000Y-145250000D03*
D38*
%TO.P,Q8,2*%
%TO.N,Net-(Q8-Pad2)*%
X84710000Y-145250000D03*
%TO.P,Q8,3*%
%TO.N,GND*%
X82170000Y-145250000D03*
%TD*%
D39*
%TO.P,Q9,1*%
%TO.N,Net-(Q9-Pad1)*%
X104000000Y-145250000D03*
D38*
%TO.P,Q9,2*%
%TO.N,Net-(Q8-Pad2)*%
X101460000Y-145250000D03*
%TO.P,Q9,3*%
%TO.N,GND*%
X98920000Y-145250000D03*
%TD*%
D24*
%TO.P,Q10,2*%
%TO.N,Net-(D8-Pad2)*%
X84540000Y-91960000D03*
%TO.P,Q10,3*%
%TO.N,Net-(D8-Pad1)*%
X87080000Y-94500000D03*
D23*
%TO.P,Q10,1*%
%TO.N,GND*%
X82000000Y-94500000D03*
%TD*%
D39*
%TO.P,Q11,1*%
%TO.N,Net-(Q11-Pad1)*%
X119750000Y-145250000D03*
D38*
%TO.P,Q11,2*%
%TO.N,Net-(Q11-Pad2)*%
X117210000Y-145250000D03*
%TO.P,Q11,3*%
%TO.N,GND*%
X114670000Y-145250000D03*
%TD*%
D39*
%TO.P,Q12,1*%
%TO.N,Net-(Q12-Pad1)*%
X135500000Y-145250000D03*
D38*
%TO.P,Q12,2*%
%TO.N,Net-(Q11-Pad2)*%
X132960000Y-145250000D03*
%TO.P,Q12,3*%
%TO.N,GND*%
X130420000Y-145250000D03*
%TD*%
%TO.P,Q13,3*%
%TO.N,-B*%
X84670000Y-64000000D03*
%TO.P,Q13,2*%
%TO.N,Net-(C15-Pad2)*%
X87210000Y-64000000D03*
D39*
%TO.P,Q13,1*%
%TO.N,Net-(D17-Pad1)*%
X89750000Y-64000000D03*
%TD*%
D13*
%TO.P,R1,1*%
%TO.N,Net-(Q1-Pad1)*%
X204500000Y-118500000D03*
D12*
%TO.P,R1,2*%
%TO.N,PWM*%
X214660000Y-118500000D03*
%TD*%
D13*
%TO.P,R2,1*%
%TO.N,Net-(C2-Pad1)*%
X205090000Y-125250000D03*
D12*
%TO.P,R2,2*%
%TO.N,Net-(D3-Pad1)*%
X215250000Y-125250000D03*
%TD*%
D13*
%TO.P,R3,1*%
%TO.N,PWM*%
X205750000Y-130250000D03*
D12*
%TO.P,R3,2*%
%TO.N,Net-(D1-Pad2)*%
X215910000Y-130250000D03*
%TD*%
D13*
%TO.P,R4,1*%
%TO.N,GND*%
X43250000Y-109750000D03*
D12*
%TO.P,R4,2*%
%TO.N,Net-(C1-Pad2)*%
X53410000Y-109750000D03*
%TD*%
%TO.P,R6,2*%
%TO.N,Net-(R6-Pad2)*%
X53410000Y-87000000D03*
D13*
%TO.P,R6,1*%
%TO.N,VREF*%
X43250000Y-87000000D03*
%TD*%
D12*
%TO.P,R7,2*%
%TO.N,Net-(R6-Pad2)*%
X53410000Y-102500000D03*
D13*
%TO.P,R7,1*%
%TO.N,Net-(R7-Pad1)*%
X43250000Y-102500000D03*
%TD*%
D12*
%TO.P,R8,2*%
%TO.N,Net-(D6-Pad2)*%
X245660000Y-131250000D03*
D13*
%TO.P,R8,1*%
%TO.N,~PWM*%
X235500000Y-131250000D03*
%TD*%
D12*
%TO.P,R9,2*%
%TO.N,GND*%
X75750000Y-121090000D03*
D13*
%TO.P,R9,1*%
%TO.N,Net-(D7-Pad2)*%
X75750000Y-131250000D03*
%TD*%
%TO.P,R10,1*%
%TO.N,Net-(C7-Pad1)*%
X234250000Y-124750000D03*
D12*
%TO.P,R10,2*%
%TO.N,Net-(D4-Pad1)*%
X244410000Y-124750000D03*
%TD*%
D13*
%TO.P,R11,1*%
%TO.N,~PWM*%
X245250000Y-118750000D03*
D12*
%TO.P,R11,2*%
%TO.N,Net-(Q6-Pad1)*%
X235090000Y-118750000D03*
%TD*%
D13*
%TO.P,R12,1*%
%TO.N,Net-(Q8-Pad1)*%
X78500000Y-116500000D03*
D12*
%TO.P,R12,2*%
%TO.N,GND*%
X78500000Y-106340000D03*
%TD*%
%TO.P,R13,2*%
%TO.N,Net-(D7-Pad1)*%
X73250000Y-106340000D03*
D13*
%TO.P,R13,1*%
%TO.N,Net-(Q8-Pad1)*%
X73250000Y-116500000D03*
%TD*%
D12*
%TO.P,R14,2*%
%TO.N,GND*%
X76000000Y-91840000D03*
D13*
%TO.P,R14,1*%
%TO.N,Net-(D8-Pad2)*%
X76000000Y-102000000D03*
%TD*%
%TO.P,R15,1*%
%TO.N,Net-(Q9-Pad1)*%
X84250000Y-116500000D03*
D12*
%TO.P,R15,2*%
%TO.N,Net-(D7-Pad1)*%
X84250000Y-106340000D03*
%TD*%
%TO.P,R16,2*%
%TO.N,GND*%
X69910000Y-140750000D03*
D13*
%TO.P,R16,1*%
%TO.N,Net-(Q11-Pad1)*%
X59750000Y-140750000D03*
%TD*%
D12*
%TO.P,R17,2*%
%TO.N,Net-(R17-Pad2)*%
X213000000Y-99160000D03*
D13*
%TO.P,R17,1*%
%TO.N,GND*%
X213000000Y-89000000D03*
%TD*%
%TO.P,R18,1*%
%TO.N,Net-(Q16-Pad2)*%
X191000000Y-103000000D03*
D12*
%TO.P,R18,2*%
%TO.N,Net-(R18-Pad2)*%
X201160000Y-103000000D03*
%TD*%
D13*
%TO.P,R19,1*%
%TO.N,Net-(Q11-Pad1)*%
X59750000Y-146750000D03*
D12*
%TO.P,R19,2*%
%TO.N,Net-(D8-Pad1)*%
X69910000Y-146750000D03*
%TD*%
%TO.P,R20,2*%
%TO.N,Net-(D8-Pad1)*%
X69910000Y-134500000D03*
D13*
%TO.P,R20,1*%
%TO.N,Net-(Q12-Pad1)*%
X59750000Y-134500000D03*
%TD*%
D12*
%TO.P,R21,2*%
%TO.N,330VDC*%
X84910000Y-82500000D03*
D13*
%TO.P,R21,1*%
%TO.N,VFB*%
X74750000Y-82500000D03*
%TD*%
%TO.P,R22,1*%
%TO.N,GND*%
X84750000Y-87750000D03*
D12*
%TO.P,R22,2*%
%TO.N,VFB*%
X74590000Y-87750000D03*
%TD*%
%TO.P,R24,2*%
%TO.N,+B*%
X70500000Y-44840000D03*
D13*
%TO.P,R24,1*%
%TO.N,Net-(C14-Pad1)*%
X70500000Y-55000000D03*
%TD*%
%TO.P,R25,1*%
%TO.N,Net-(D17-Pad1)*%
X76000000Y-49750000D03*
D12*
%TO.P,R25,2*%
%TO.N,Net-(C14-Pad1)*%
X76000000Y-59910000D03*
%TD*%
%TO.P,R27,2*%
%TO.N,Net-(C16-Pad1)*%
X128500000Y-52090000D03*
D13*
%TO.P,R27,1*%
%TO.N,Net-(DZ1-Pad1)*%
X128500000Y-62250000D03*
%TD*%
D12*
%TO.P,R28,2*%
%TO.N,Net-(C16-Pad1)*%
X133250000Y-52090000D03*
D13*
%TO.P,R28,1*%
%TO.N,GND*%
X133250000Y-62250000D03*
%TD*%
D40*
%TO.P,R29,1*%
%TO.N,Net-(C16-Pad1)*%
X141750000Y-32000000D03*
D31*
%TO.P,R29,2*%
%TO.N,VBAT*%
X141750000Y-52320000D03*
%TD*%
D12*
%TO.P,R30,2*%
%TO.N,Net-(Q14-Pad2)*%
X212500000Y-64910000D03*
D13*
%TO.P,R30,1*%
%TO.N,VON*%
X212500000Y-54750000D03*
%TD*%
%TO.P,R31,1*%
%TO.N,Net-(Q9-Pad1)*%
X89750000Y-116500000D03*
D12*
%TO.P,R31,2*%
%TO.N,GND*%
X89750000Y-106340000D03*
%TD*%
%TO.P,R32,2*%
%TO.N,GND*%
X69910000Y-128500000D03*
D13*
%TO.P,R32,1*%
%TO.N,Net-(Q12-Pad1)*%
X59750000Y-128500000D03*
%TD*%
%TO.P,R33,1*%
%TO.N,SS*%
X231000000Y-99250000D03*
D12*
%TO.P,R33,2*%
%TO.N,Net-(C18-Pad1)*%
X231000000Y-89090000D03*
%TD*%
%TO.P,R34,2*%
%TO.N,SS*%
X204000000Y-99160000D03*
D13*
%TO.P,R34,1*%
%TO.N,GND*%
X204000000Y-89000000D03*
%TD*%
D12*
%TO.P,R35,2*%
%TO.N,Net-(R35-Pad2)*%
X231090000Y-105000000D03*
D13*
%TO.P,R35,1*%
%TO.N,Net-(Q18-Pad2)*%
X241250000Y-105000000D03*
%TD*%
%TO.P,R36,1*%
%TO.N,Net-(D19-Pad2)*%
X128500000Y-42250000D03*
D12*
%TO.P,R36,2*%
%TO.N,Net-(C4-Pad2)*%
X128500000Y-32090000D03*
%TD*%
D13*
%TO.P,R37,1*%
%TO.N,Net-(D20-Pad2)*%
X133500000Y-67000000D03*
D12*
%TO.P,R37,2*%
%TO.N,+12V*%
X143660000Y-67000000D03*
%TD*%
D13*
%TO.P,R38,1*%
%TO.N,V_5_SEG*%
X213750000Y-41250000D03*
D12*
%TO.P,R38,2*%
%TO.N,Net-(Q15-Pad2)*%
X213750000Y-31090000D03*
%TD*%
D13*
%TO.P,R39,1*%
%TO.N,+B*%
X64000000Y-71000000D03*
D12*
%TO.P,R39,2*%
%TO.N,Net-(R39-Pad2)*%
X74160000Y-71000000D03*
%TD*%
D13*
%TO.P,R40,1*%
%TO.N,5V*%
X234250000Y-85000000D03*
D12*
%TO.P,R40,2*%
%TO.N,VON*%
X244410000Y-85000000D03*
%TD*%
%TO.P,R41,2*%
%TO.N,VON*%
X230910000Y-80250000D03*
D13*
%TO.P,R41,1*%
%TO.N,Net-(R41-Pad1)*%
X220750000Y-80250000D03*
%TD*%
D12*
%TO.P,R42,2*%
%TO.N,2IN+*%
X68160000Y-94000000D03*
D13*
%TO.P,R42,1*%
%TO.N,GND*%
X58000000Y-94000000D03*
%TD*%
D12*
%TO.P,R43,2*%
%TO.N,VREF*%
X57840000Y-82000000D03*
D13*
%TO.P,R43,1*%
%TO.N,Net-(R43-Pad1)*%
X68000000Y-82000000D03*
%TD*%
%TO.P,R44,1*%
%TO.N,2IN-*%
X43500000Y-82000000D03*
D12*
%TO.P,R44,2*%
%TO.N,VREF*%
X53660000Y-82000000D03*
%TD*%
%TO.P,R45,2*%
%TO.N,2IN-*%
X42840000Y-94000000D03*
D13*
%TO.P,R45,1*%
%TO.N,GND*%
X53000000Y-94000000D03*
%TD*%
D12*
%TO.P,R46,2*%
%TO.N,Net-(Q20-Pad2)*%
X173000000Y-67660000D03*
D13*
%TO.P,R46,1*%
%TO.N,V_5_SEG*%
X173000000Y-57500000D03*
%TD*%
%TO.P,R47,1*%
%TO.N,V_5_SEG*%
X204500000Y-57750000D03*
D12*
%TO.P,R47,2*%
%TO.N,Net-(Q22-Pad2)*%
X204500000Y-67910000D03*
%TD*%
D13*
%TO.P,R48,1*%
%TO.N,VBAT*%
X234250000Y-80250000D03*
D12*
%TO.P,R48,2*%
%TO.N,5V*%
X244410000Y-80250000D03*
%TD*%
D20*
%TO.P,SW1,2*%
%TO.N,VBAT*%
X140750000Y-56420000D03*
D21*
%TO.P,SW1,1*%
%TO.N,+12V*%
X140750000Y-61500000D03*
%TD*%
D12*
%TO.P,U3,4*%
%TO.N,Net-(D17-Pad1)*%
X104630000Y-67500000D03*
%TO.P,U3,2*%
%TO.N,GND*%
X112250000Y-64960000D03*
%TO.P,U3,3*%
%TO.N,-B*%
X104630000Y-64960000D03*
D25*
%TO.P,U3,1*%
%TO.N,Net-(DZ1-Pad2)*%
X112250000Y-67500000D03*
%TD*%
%TO.P,U4,1*%
%TO.N,Net-(R39-Pad2)*%
X104500000Y-71250000D03*
D12*
%TO.P,U4,3*%
%TO.N,GND*%
X112120000Y-73790000D03*
%TO.P,U4,2*%
%TO.N,-B*%
X104500000Y-73790000D03*
%TO.P,U4,4*%
%TO.N,Net-(R41-Pad1)*%
X112120000Y-71250000D03*
%TD*%
D41*
%TO.N,VREF*%
X51250000Y-118250000D02*
X51250000Y-120750000D01*
X51250000Y-120750000D02*
X53000000Y-122500000D01*
X53000000Y-122500000D02*
X63000000Y-122500000D01*
X63000000Y-122500000D02*
X64000000Y-121500000D01*
X64000000Y-121500000D02*
X64000000Y-110000000D01*
X64630000Y-109370000D02*
X67870000Y-109370000D01*
X64000000Y-110000000D02*
X64630000Y-109370000D01*
%TO.N,GND*%
X69910000Y-128500000D02*
X69910000Y-123090000D01*
X71910000Y-121090000D02*
X75750000Y-121090000D01*
X69910000Y-123090000D02*
X71910000Y-121090000D01*
D42*
X190750000Y-114250000D02*
X193000000Y-112000000D01*
X188750000Y-114250000D02*
X190750000Y-114250000D01*
X193670000Y-118500000D02*
X193670000Y-117170000D01*
X208760000Y-112620000D02*
X208760000Y-114740000D01*
X208500000Y-115000000D02*
X191500000Y-115000000D01*
X208760000Y-114740000D02*
X208500000Y-115000000D01*
X191500000Y-115000000D02*
X190750000Y-114250000D01*
X193670000Y-117170000D02*
X191500000Y-115000000D01*
X209500000Y-116000000D02*
X208500000Y-115000000D01*
X220920000Y-116000000D02*
X209500000Y-116000000D01*
X238835000Y-116415000D02*
X241250000Y-114000000D01*
X221335000Y-116415000D02*
X238835000Y-116415000D01*
X223670000Y-118750000D02*
X221335000Y-116415000D01*
X221335000Y-116415000D02*
X220920000Y-116000000D01*
X238835000Y-116415000D02*
X243335000Y-116415000D01*
X243335000Y-116415000D02*
X245250000Y-114500000D01*
X243750000Y-92000000D02*
X240750000Y-92000000D01*
X245250000Y-93500000D02*
X243750000Y-92000000D01*
X243750000Y-96750000D02*
X245250000Y-98250000D01*
X240750000Y-96750000D02*
X243750000Y-96750000D01*
X245250000Y-98250000D02*
X245250000Y-93500000D01*
X245250000Y-114500000D02*
X245250000Y-98250000D01*
X194000000Y-94000000D02*
X194000000Y-95750000D01*
X194000000Y-95750000D02*
X189500000Y-100250000D01*
X189500000Y-100250000D02*
X188750000Y-100250000D01*
X186125000Y-102875000D02*
X186125000Y-111625000D01*
X188750000Y-100250000D02*
X186125000Y-102875000D01*
X131500000Y-47500000D02*
X130500000Y-48500000D01*
X132500000Y-42500000D02*
X131500000Y-43500000D01*
X130500000Y-48500000D02*
X128750000Y-48500000D01*
X157000000Y-51500000D02*
X157000000Y-44500000D01*
X131500000Y-43500000D02*
X131500000Y-47500000D01*
X158000000Y-52500000D02*
X157000000Y-51500000D01*
X167500000Y-52500000D02*
X158000000Y-52500000D01*
X169000000Y-54000000D02*
X167500000Y-52500000D01*
X155000000Y-42500000D02*
X132500000Y-42500000D01*
X169000000Y-68500000D02*
X169000000Y-54000000D01*
X157000000Y-44500000D02*
X155000000Y-42500000D01*
X170580000Y-70080000D02*
X169000000Y-68500000D01*
X170580000Y-74500000D02*
X170580000Y-70080000D01*
X186000000Y-113500000D02*
X187000000Y-112500000D01*
X187000000Y-112500000D02*
X188750000Y-114250000D01*
X174000000Y-113500000D02*
X186000000Y-113500000D01*
X186125000Y-111625000D02*
X187000000Y-112500000D01*
X206080000Y-74000000D02*
X208500000Y-71580000D01*
X208500000Y-71580000D02*
X208500000Y-53500000D01*
X208500000Y-53500000D02*
X211500000Y-50500000D01*
X216080000Y-50500000D02*
X218580000Y-48000000D01*
X211500000Y-50500000D02*
X216080000Y-50500000D01*
%TO.N,+B*%
X64000000Y-71000000D02*
X62000000Y-69000000D01*
X62000000Y-69000000D02*
X62000000Y-46500000D01*
X63660000Y-44840000D02*
X70500000Y-44840000D01*
X62000000Y-46500000D02*
X63660000Y-44840000D01*
D41*
%TO.N,VON*%
X214250000Y-54750000D02*
X212500000Y-54750000D01*
X218500000Y-53000000D02*
X216000000Y-53000000D01*
X221000000Y-48000000D02*
X221000000Y-50500000D01*
X234500000Y-45000000D02*
X224000000Y-45000000D01*
X221000000Y-50500000D02*
X218500000Y-53000000D01*
X236500000Y-47000000D02*
X234500000Y-45000000D01*
X233500000Y-67500000D02*
X236500000Y-64500000D01*
X233000000Y-67500000D02*
X233500000Y-67500000D01*
X236500000Y-64500000D02*
X236500000Y-47000000D01*
X230910000Y-69590000D02*
X233000000Y-67500000D01*
X216000000Y-53000000D02*
X214250000Y-54750000D01*
X224000000Y-45000000D02*
X221000000Y-48000000D01*
X230910000Y-80250000D02*
X230910000Y-69590000D01*
D43*
%TO.N,330VDC*%
X84910000Y-82500000D02*
X87500000Y-82500000D01*
X87500000Y-82500000D02*
X93000000Y-88000000D01*
X93000000Y-88000000D02*
X133000000Y-88000000D01*
X133750000Y-87250000D02*
X133750000Y-82000000D01*
X133000000Y-88000000D02*
X133750000Y-87250000D01*
D41*
%TO.N,Net-(C18-Pad1)*%
X221460000Y-105000000D02*
X221460000Y-103290000D01*
X221460000Y-103290000D02*
X223000000Y-101750000D01*
X223000000Y-101750000D02*
X225750000Y-101750000D01*
X225750000Y-101750000D02*
X228000000Y-99500000D01*
X228000000Y-92090000D02*
X231000000Y-89090000D01*
X228000000Y-99500000D02*
X228000000Y-92090000D01*
%TO.N,Net-(D1-Pad2)*%
X214120000Y-135500000D02*
X214120000Y-136870000D01*
X215250000Y-138000000D02*
X215250000Y-145000000D01*
X214120000Y-136870000D02*
X215250000Y-138000000D01*
D42*
%TO.N,+12V*%
X98000000Y-100500000D02*
X101500000Y-100500000D01*
X101500000Y-100500000D02*
X103000000Y-99000000D01*
X103000000Y-99000000D02*
X103000000Y-95000000D01*
X103000000Y-95000000D02*
X107500000Y-90500000D01*
X107500000Y-90500000D02*
X135500000Y-90500000D01*
X135500000Y-90500000D02*
X141500000Y-84500000D01*
X71500000Y-110820000D02*
X70410000Y-111910000D01*
X75000000Y-99000000D02*
X71500000Y-102500000D01*
X98000000Y-100500000D02*
X96500000Y-99000000D01*
X96500000Y-99000000D02*
X75000000Y-99000000D01*
X67870000Y-111910000D02*
X70410000Y-111910000D01*
X71500000Y-114000000D02*
X71500000Y-110000000D01*
X71050000Y-114450000D02*
X71500000Y-114000000D01*
X67870000Y-114450000D02*
X71050000Y-114450000D01*
X71500000Y-110000000D02*
X71500000Y-110820000D01*
X71500000Y-102500000D02*
X71500000Y-110000000D01*
X141500000Y-78500000D02*
X141500000Y-79250000D01*
X141500000Y-84500000D02*
X141500000Y-78500000D01*
X198250000Y-121750000D02*
X201750000Y-125250000D01*
X216840000Y-121750000D02*
X219840000Y-124750000D01*
X198250000Y-121750000D02*
X216840000Y-121750000D01*
X221460000Y-113960000D02*
X221460000Y-112620000D01*
X222250000Y-114750000D02*
X221460000Y-113960000D01*
X232000000Y-114750000D02*
X222250000Y-114750000D01*
X232750000Y-114000000D02*
X232000000Y-114750000D01*
X141500000Y-69160000D02*
X141500000Y-66750000D01*
X140750000Y-66000000D02*
X140750000Y-61500000D01*
X141500000Y-66750000D02*
X140750000Y-66000000D01*
X141500000Y-78500000D02*
X141500000Y-77000000D01*
X152000000Y-80000000D02*
X155500000Y-83500000D01*
X146000000Y-80000000D02*
X152000000Y-80000000D01*
X155500000Y-83500000D02*
X166250000Y-94250000D01*
X154750000Y-82750000D02*
X155500000Y-83500000D01*
X166500000Y-115000000D02*
X166500000Y-101500000D01*
X166500000Y-101500000D02*
X166250000Y-101250000D01*
X166250000Y-94250000D02*
X166250000Y-101250000D01*
X226880000Y-64880000D02*
X224880000Y-64880000D01*
X229000000Y-67000000D02*
X226880000Y-64880000D01*
X229000000Y-75500000D02*
X229000000Y-67000000D01*
X225500000Y-79000000D02*
X229000000Y-75500000D01*
X225500000Y-89500000D02*
X225500000Y-79000000D01*
X223500000Y-91500000D02*
X225500000Y-89500000D01*
X176500000Y-91500000D02*
X223500000Y-91500000D01*
X166750000Y-101250000D02*
X176500000Y-91500000D01*
X166250000Y-101250000D02*
X166750000Y-101250000D01*
X144500000Y-78500000D02*
X141500000Y-75500000D01*
X141500000Y-75500000D02*
X141500000Y-69160000D01*
X141500000Y-77000000D02*
X141500000Y-75500000D01*
X143000000Y-77000000D02*
X144500000Y-78500000D01*
X144500000Y-78500000D02*
X146000000Y-80000000D01*
X189000000Y-117500000D02*
X193250000Y-121750000D01*
X169000000Y-117500000D02*
X189000000Y-117500000D01*
X198250000Y-121750000D02*
X193250000Y-121750000D01*
X169000000Y-117500000D02*
X166500000Y-115000000D01*
D41*
%TO.N,Net-(D3-Pad1)*%
X200500000Y-138750000D02*
X201500000Y-137750000D01*
X200500000Y-145000000D02*
X200500000Y-138750000D01*
%TO.N,Net-(D8-Pad1)*%
X69910000Y-134500000D02*
X67000000Y-131590000D01*
X67000000Y-131590000D02*
X67000000Y-124000000D01*
X67000000Y-124000000D02*
X72500000Y-118500000D01*
X72500000Y-118500000D02*
X74500000Y-118500000D01*
X74500000Y-118500000D02*
X76500000Y-116500000D01*
X76500000Y-116500000D02*
X76500000Y-114000000D01*
X76500000Y-114000000D02*
X78500000Y-112000000D01*
X78500000Y-112000000D02*
X86000000Y-112000000D01*
X87500000Y-110500000D02*
X87500000Y-101750000D01*
X86000000Y-112000000D02*
X87500000Y-110500000D01*
%TO.N,Net-(D24-Pad1)*%
X220000000Y-75000000D02*
X218500000Y-73500000D01*
X222500000Y-53000000D02*
X222500000Y-66000000D01*
X226500000Y-75000000D02*
X220000000Y-75000000D01*
X227500000Y-74000000D02*
X226500000Y-75000000D01*
X227500000Y-71000000D02*
X227500000Y-74000000D01*
X223500000Y-52000000D02*
X222500000Y-53000000D01*
X229750000Y-52000000D02*
X223500000Y-52000000D01*
X222500000Y-66000000D02*
X227500000Y-71000000D01*
X232500000Y-49250000D02*
X229750000Y-52000000D01*
%TO.N,Net-(D27-Pad2)*%
X218500000Y-65160000D02*
X219660000Y-65160000D01*
X219660000Y-65160000D02*
X221000000Y-66500000D01*
X221000000Y-66500000D02*
X221000000Y-71000000D01*
X222500000Y-72500000D02*
X224880000Y-72500000D01*
X221000000Y-71000000D02*
X222500000Y-72500000D01*
%TO.N,VBAT*%
X213580000Y-68420000D02*
X218500000Y-68420000D01*
X212000000Y-73000000D02*
X212000000Y-70000000D01*
X209000000Y-76000000D02*
X212000000Y-73000000D01*
X206041002Y-76000000D02*
X209000000Y-76000000D01*
X212000000Y-70000000D02*
X213580000Y-68420000D01*
X203041002Y-79000000D02*
X206041002Y-76000000D01*
D42*
X234500000Y-80000000D02*
X234250000Y-80250000D01*
X234500000Y-75910000D02*
X234500000Y-80000000D01*
X234500000Y-77000000D02*
X234500000Y-75910000D01*
X249000000Y-79500000D02*
X246500000Y-77000000D01*
X249000000Y-119500000D02*
X249000000Y-79500000D01*
X246500000Y-122000000D02*
X249000000Y-119500000D01*
X228000000Y-122000000D02*
X246500000Y-122000000D01*
X222000000Y-128000000D02*
X228000000Y-122000000D01*
X175330000Y-128000000D02*
X222000000Y-128000000D01*
X246500000Y-77000000D02*
X234500000Y-77000000D01*
X172580000Y-125250000D02*
X175330000Y-128000000D01*
X232500000Y-73910000D02*
X233045000Y-74455000D01*
X232500000Y-72500000D02*
X232500000Y-73910000D01*
X233045000Y-74455000D02*
X234500000Y-75910000D01*
D41*
X200500000Y-79000000D02*
X203041002Y-79000000D01*
D42*
X198000000Y-76500000D02*
X200500000Y-79000000D01*
X192500000Y-76500000D02*
X198000000Y-76500000D01*
X188000000Y-72000000D02*
X192500000Y-76500000D01*
X183840000Y-72000000D02*
X188000000Y-72000000D01*
X175000000Y-79500000D02*
X180000000Y-84500000D01*
X180000000Y-84500000D02*
X195000000Y-84500000D01*
X164000000Y-79500000D02*
X175000000Y-79500000D01*
X158500000Y-74000000D02*
X164000000Y-79500000D01*
X152500000Y-74000000D02*
X158500000Y-74000000D01*
X151000000Y-72500000D02*
X152500000Y-74000000D01*
X195000000Y-84500000D02*
X200500000Y-79000000D01*
X151000000Y-72000000D02*
X151000000Y-72500000D01*
D41*
%TO.N,Net-(Q8-Pad1)*%
X78500000Y-126000000D02*
X78500000Y-116500000D01*
X82000000Y-128000000D02*
X80500000Y-128000000D01*
X83500000Y-129500000D02*
X82000000Y-128000000D01*
X83500000Y-139500000D02*
X83500000Y-129500000D01*
X87250000Y-143250000D02*
X83500000Y-139500000D01*
X80500000Y-128000000D02*
X78500000Y-126000000D01*
X87250000Y-145250000D02*
X87250000Y-143250000D01*
%TO.N,Net-(Q9-Pad1)*%
X89750000Y-116500000D02*
X89750000Y-117750000D01*
X89750000Y-117750000D02*
X93500000Y-121500000D01*
X93500000Y-121500000D02*
X93500000Y-135500000D01*
X93500000Y-135500000D02*
X96000000Y-138000000D01*
X96000000Y-138000000D02*
X102000000Y-138000000D01*
X104000000Y-140000000D02*
X104000000Y-145250000D01*
X102000000Y-138000000D02*
X104000000Y-140000000D01*
%TO.N,Net-(Q11-Pad1)*%
X59750000Y-146750000D02*
X62500000Y-149500000D01*
X62500000Y-149500000D02*
X118500000Y-149500000D01*
X119750000Y-148250000D02*
X119750000Y-145250000D01*
X118500000Y-149500000D02*
X119750000Y-148250000D01*
%TO.N,Net-(Q12-Pad1)*%
X135500000Y-145250000D02*
X135500000Y-148500000D01*
X135500000Y-148500000D02*
X132500000Y-151500000D01*
X132500000Y-151500000D02*
X59500000Y-151500000D01*
X59500000Y-151500000D02*
X56000000Y-148000000D01*
X56000000Y-148000000D02*
X56000000Y-136500000D01*
X58000000Y-134500000D02*
X59750000Y-134500000D01*
X56000000Y-136500000D02*
X58000000Y-134500000D01*
D42*
%TO.N,V_5_SEG*%
X176000000Y-63500000D02*
X176000000Y-76000000D01*
X176000000Y-76000000D02*
X178000000Y-78000000D01*
X173000000Y-60500000D02*
X176000000Y-63500000D01*
X173000000Y-57500000D02*
X173000000Y-60500000D01*
X178000000Y-78000000D02*
X182920000Y-78000000D01*
D41*
%TO.N,Net-(R35-Pad2)*%
X218920000Y-112620000D02*
X218920000Y-111330000D01*
X218920000Y-111330000D02*
X220750000Y-109500000D01*
X220750000Y-109500000D02*
X226250000Y-109500000D01*
X226250000Y-109500000D02*
X228500000Y-107250000D01*
X228500000Y-107250000D02*
X228500000Y-106000000D01*
X229500000Y-105000000D02*
X231090000Y-105000000D01*
X228500000Y-106000000D02*
X229500000Y-105000000D01*
D42*
%TO.N,Net-(R41-Pad1)*%
X207250000Y-80250000D02*
X220750000Y-80250000D01*
X112120000Y-71250000D02*
X133750000Y-71250000D01*
X133750000Y-71250000D02*
X136000000Y-69000000D01*
X136000000Y-53000000D02*
X141500000Y-47500000D01*
X136000000Y-69000000D02*
X136000000Y-53000000D01*
X165000000Y-86500000D02*
X197000000Y-86500000D01*
X147500000Y-50500000D02*
X147500000Y-75500000D01*
X147500000Y-75500000D02*
X149500000Y-77500000D01*
X149500000Y-77500000D02*
X156000000Y-77500000D01*
X156000000Y-77500000D02*
X165000000Y-86500000D01*
X205000000Y-82500000D02*
X207250000Y-80250000D01*
X141500000Y-47500000D02*
X144500000Y-47500000D01*
X197000000Y-86500000D02*
X201000000Y-82500000D01*
X144500000Y-47500000D02*
X147500000Y-50500000D01*
X201000000Y-82500000D02*
X205000000Y-82500000D01*
D41*
%TO.N,2IN-*%
X42840000Y-94000000D02*
X46840000Y-98000000D01*
X46840000Y-98000000D02*
X62000000Y-98000000D01*
X62000000Y-98000000D02*
X65000000Y-101000000D01*
X65000000Y-101000000D02*
X65000000Y-103500000D01*
X65790000Y-104290000D02*
X67870000Y-104290000D01*
X65000000Y-103500000D02*
X65790000Y-104290000D01*
%TO.N,Net-(U2-Pad1)*%
X206220000Y-112620000D02*
X206220000Y-109530000D01*
X206220000Y-109530000D02*
X208000000Y-107750000D01*
X208000000Y-107750000D02*
X223250000Y-107750000D01*
X224000000Y-107000000D02*
X224000000Y-105000000D01*
X223250000Y-107750000D02*
X224000000Y-107000000D01*
%TD*%
M02*
