%TF.GenerationSoftware,KiCad,Pcbnew,(5.1.9)-1*%
%TF.CreationDate,2021-11-22T08:04:15-03:00*%
%TF.ProjectId,inversor 1.2,696e7665-7273-46f7-9220-312e322e6b69,rev?*%
%TF.SameCoordinates,Original*%
%TF.FileFunction,Soldermask,Top*%
%TF.FilePolarity,Negative*%
%FSLAX46Y46*%
G04 Gerber Fmt 4.6, Leading zero omitted, Abs format (unit mm)*
G04 Created by KiCad (PCBNEW (5.1.9)-1) date 2021-11-22 08:04:15*
%MOMM*%
%LPD*%
G01*
G04 APERTURE LIST*
%ADD10O,2.000000X2.000000*%
%ADD11C,2.000000*%
%ADD12O,1.600000X1.600000*%
%ADD13C,1.600000*%
%ADD14O,1.600000X2.400000*%
%ADD15R,1.600000X2.400000*%
%ADD16O,2.400000X1.600000*%
%ADD17R,2.400000X1.600000*%
%ADD18C,4.300000*%
%ADD19C,4.000000*%
%ADD20R,4.000000X4.000000*%
%ADD21C,3.000000*%
%ADD22R,3.000000X3.000000*%
%ADD23R,2.000000X2.000000*%
%ADD24R,1.500000X1.500000*%
%ADD25C,1.500000*%
%ADD26R,1.600000X1.600000*%
%ADD27R,2.400000X2.400000*%
%ADD28C,2.400000*%
%ADD29R,2.200000X2.200000*%
%ADD30O,2.200000X2.200000*%
%ADD31R,3.200000X3.200000*%
%ADD32O,3.200000X3.200000*%
%ADD33C,1.800000*%
%ADD34R,1.800000X1.800000*%
%ADD35R,2.500000X2.500000*%
%ADD36C,2.500000*%
%ADD37R,1.600000X1.800000*%
%ADD38O,1.800000X1.800000*%
%ADD39O,1.905000X2.000000*%
%ADD40R,1.905000X2.000000*%
%ADD41C,3.200000*%
G04 APERTURE END LIST*
D10*
%TO.C,R23*%
X54500000Y-53740000D03*
D11*
X54500000Y-38500000D03*
%TD*%
D12*
%TO.C,R26*%
X89500000Y-30840000D03*
D13*
X89500000Y-41000000D03*
%TD*%
D14*
%TO.C,U2*%
X224000000Y-112620000D03*
X206220000Y-105000000D03*
X221460000Y-112620000D03*
X208760000Y-105000000D03*
X218920000Y-112620000D03*
X211300000Y-105000000D03*
X216380000Y-112620000D03*
X213840000Y-105000000D03*
X213840000Y-112620000D03*
X216380000Y-105000000D03*
X211300000Y-112620000D03*
X218920000Y-105000000D03*
X208760000Y-112620000D03*
X221460000Y-105000000D03*
X206220000Y-112620000D03*
D15*
X224000000Y-105000000D03*
%TD*%
D16*
%TO.C,U1*%
X67870000Y-101750000D03*
X60250000Y-119530000D03*
X67870000Y-104290000D03*
X60250000Y-116990000D03*
X67870000Y-106830000D03*
X60250000Y-114450000D03*
X67870000Y-109370000D03*
X60250000Y-111910000D03*
X67870000Y-111910000D03*
X60250000Y-109370000D03*
X67870000Y-114450000D03*
X60250000Y-106830000D03*
X67870000Y-116990000D03*
X60250000Y-104290000D03*
X67870000Y-119530000D03*
D17*
X60250000Y-101750000D03*
%TD*%
D18*
%TO.C,~*%
X41500000Y-151500000D03*
%TD*%
%TO.C,~*%
X41500000Y-20500000D03*
%TD*%
%TO.C,~*%
X250500000Y-151500000D03*
%TD*%
%TO.C,~*%
X250500000Y-20500000D03*
%TD*%
D10*
%TO.C,C12*%
X47500000Y-60000000D03*
D11*
X47500000Y-40000000D03*
%TD*%
D19*
%TO.C,C11*%
X174000000Y-113500000D03*
D20*
X174000000Y-103500000D03*
%TD*%
D19*
%TO.C,C17*%
X150000000Y-94000000D03*
D20*
X150000000Y-84000000D03*
%TD*%
D21*
%TO.C,T2*%
X127250000Y-130000000D03*
X127250000Y-107547000D03*
X122170000Y-107547000D03*
X117170000Y-107547000D03*
X112170000Y-107547000D03*
X107170000Y-107547000D03*
X102170000Y-107547000D03*
X102170000Y-130000000D03*
X107170000Y-130000000D03*
X112170000Y-130000000D03*
X117170000Y-130000000D03*
X122170000Y-130000000D03*
%TD*%
D12*
%TO.C,R5*%
X53660000Y-132500000D03*
D13*
X43500000Y-132500000D03*
%TD*%
D21*
%TO.C,T1*%
X97750000Y-54500000D03*
X97750000Y-59500000D03*
X97750000Y-44500000D03*
X97750000Y-49500000D03*
X97750000Y-34500000D03*
X97750000Y-39500000D03*
X121750000Y-34500000D03*
X121750000Y-39500000D03*
X121750000Y-44500000D03*
X121750000Y-54500000D03*
X121750000Y-59500000D03*
X121750000Y-49500000D03*
%TD*%
%TO.C,J6*%
X48250000Y-69580000D03*
D22*
X48250000Y-64500000D03*
%TD*%
D12*
%TO.C,TH3*%
X67910000Y-87250000D03*
D13*
X57750000Y-87250000D03*
%TD*%
D11*
%TO.C,C6*%
X194000000Y-94000000D03*
D23*
X189000000Y-94000000D03*
%TD*%
D24*
%TO.C,Q22*%
X201000000Y-74000000D03*
D25*
X206080000Y-74000000D03*
X203540000Y-71460000D03*
%TD*%
D24*
%TO.C,Q21*%
X188000000Y-78000000D03*
D25*
X182920000Y-78000000D03*
X185460000Y-80540000D03*
%TD*%
D24*
%TO.C,Q20*%
X165500000Y-74500000D03*
D25*
X170580000Y-74500000D03*
X168040000Y-71960000D03*
%TD*%
D24*
%TO.C,Q19*%
X241250000Y-114000000D03*
D25*
X241250000Y-108920000D03*
X238710000Y-111460000D03*
%TD*%
D24*
%TO.C,Q18*%
X232750000Y-114000000D03*
D25*
X232750000Y-108920000D03*
X230210000Y-111460000D03*
%TD*%
D24*
%TO.C,Q17*%
X193000000Y-112000000D03*
D25*
X193000000Y-106920000D03*
X190460000Y-109460000D03*
%TD*%
D24*
%TO.C,Q16*%
X201000000Y-112000000D03*
D25*
X201000000Y-106920000D03*
X198460000Y-109460000D03*
%TD*%
D24*
%TO.C,Q15*%
X213500000Y-48000000D03*
D25*
X218580000Y-48000000D03*
X216040000Y-45460000D03*
%TD*%
D24*
%TO.C,Q14*%
X218500000Y-73500000D03*
D25*
X218500000Y-68420000D03*
X215960000Y-70960000D03*
%TD*%
D13*
%TO.C,C1*%
X53750000Y-118250000D03*
D26*
X51250000Y-118250000D03*
%TD*%
%TO.C,C2*%
X197750000Y-130750000D03*
D13*
X197750000Y-133250000D03*
%TD*%
%TO.C,C3*%
X42750000Y-118000000D03*
D26*
X45250000Y-118000000D03*
%TD*%
D13*
%TO.C,C4*%
X104500000Y-29000000D03*
D12*
X114500000Y-29000000D03*
%TD*%
%TO.C,C5*%
X43500000Y-127000000D03*
D13*
X53500000Y-127000000D03*
%TD*%
D26*
%TO.C,C7*%
X227250000Y-129250000D03*
D13*
X227250000Y-131750000D03*
%TD*%
%TO.C,C8*%
X240750000Y-96750000D03*
D26*
X240750000Y-99250000D03*
%TD*%
D27*
%TO.C,C9*%
X146750000Y-138750000D03*
D28*
X154250000Y-138750000D03*
%TD*%
D13*
%TO.C,C10*%
X222000000Y-99000000D03*
D12*
X222000000Y-89000000D03*
%TD*%
D27*
%TO.C,C13*%
X78500000Y-33250000D03*
D28*
X78500000Y-40750000D03*
%TD*%
D13*
%TO.C,C14*%
X69500000Y-65000000D03*
D12*
X79500000Y-65000000D03*
%TD*%
%TO.C,C15*%
X89250000Y-54500000D03*
D13*
X89250000Y-44500000D03*
%TD*%
D28*
%TO.C,C16*%
X172500000Y-90000000D03*
D27*
X172500000Y-82500000D03*
%TD*%
D26*
%TO.C,C18*%
X240750000Y-89500000D03*
D13*
X240750000Y-92000000D03*
%TD*%
D12*
%TO.C,D1*%
X214120000Y-134750000D03*
D26*
X206500000Y-134750000D03*
%TD*%
D29*
%TO.C,D2*%
X191590000Y-125250000D03*
D30*
X201750000Y-125250000D03*
%TD*%
D12*
%TO.C,D3*%
X193880000Y-137750000D03*
D26*
X201500000Y-137750000D03*
%TD*%
%TO.C,D4*%
X224250000Y-137000000D03*
D12*
X231870000Y-137000000D03*
%TD*%
D30*
%TO.C,D5*%
X219840000Y-124750000D03*
D29*
X230000000Y-124750000D03*
%TD*%
D26*
%TO.C,D6*%
X236500000Y-137250000D03*
D12*
X244120000Y-137250000D03*
%TD*%
%TO.C,D7*%
X79380000Y-131000000D03*
D26*
X87000000Y-131000000D03*
%TD*%
%TO.C,D8*%
X87500000Y-101750000D03*
D12*
X79880000Y-101750000D03*
%TD*%
D31*
%TO.C,D9*%
X133750000Y-82000000D03*
D32*
X118510000Y-82000000D03*
%TD*%
%TO.C,D10*%
X95260000Y-82000000D03*
D31*
X110500000Y-82000000D03*
%TD*%
%TO.C,D11*%
X133750000Y-95500000D03*
D32*
X118510000Y-95500000D03*
%TD*%
%TO.C,D12*%
X95260000Y-95500000D03*
D31*
X110500000Y-95500000D03*
%TD*%
D29*
%TO.C,D13*%
X58500000Y-32000000D03*
D30*
X58500000Y-42160000D03*
%TD*%
D29*
%TO.C,D14*%
X58500000Y-50000000D03*
D30*
X58500000Y-60160000D03*
%TD*%
%TO.C,D15*%
X65500000Y-42160000D03*
D29*
X65500000Y-32000000D03*
%TD*%
%TO.C,D16*%
X65500000Y-50000000D03*
D30*
X65500000Y-60160000D03*
%TD*%
D26*
%TO.C,D17*%
X81750000Y-51750000D03*
D12*
X81750000Y-59370000D03*
%TD*%
D31*
%TO.C,D18*%
X134750000Y-48000000D03*
D32*
X134750000Y-32760000D03*
%TD*%
D33*
%TO.C,D19*%
X128750000Y-45960000D03*
D34*
X128750000Y-48500000D03*
%TD*%
%TO.C,D20*%
X127000000Y-67250000D03*
D33*
X129540000Y-67250000D03*
%TD*%
D32*
%TO.C,D23*%
X157740000Y-124500000D03*
D31*
X142500000Y-124500000D03*
%TD*%
D30*
%TO.C,D24*%
X219250000Y-41160000D03*
D29*
X219250000Y-31000000D03*
%TD*%
D30*
%TO.C,D27*%
X218500000Y-65160000D03*
D29*
X218500000Y-55000000D03*
%TD*%
D30*
%TO.C,D28*%
X161160000Y-72000000D03*
D29*
X151000000Y-72000000D03*
%TD*%
%TO.C,D29*%
X183840000Y-72000000D03*
D30*
X194000000Y-72000000D03*
%TD*%
D26*
%TO.C,DZ1*%
X123250000Y-67500000D03*
D12*
X115630000Y-67500000D03*
%TD*%
D26*
%TO.C,DZ2*%
X228500000Y-85000000D03*
D12*
X220880000Y-85000000D03*
%TD*%
D21*
%TO.C,F1*%
X157434000Y-106000000D03*
X152608000Y-106000000D03*
X148290000Y-106000000D03*
X143337000Y-106000000D03*
%TD*%
%TO.C,F2*%
X184500000Y-121500000D03*
X184500000Y-144100000D03*
%TD*%
%TO.C,F3*%
X143337000Y-115500000D03*
X148290000Y-115500000D03*
X152608000Y-115500000D03*
X157434000Y-115500000D03*
%TD*%
%TO.C,J1*%
X158670000Y-31500000D03*
D22*
X163750000Y-31500000D03*
%TD*%
%TO.C,J2*%
X196500000Y-32000000D03*
D21*
X191420000Y-32000000D03*
%TD*%
%TO.C,J3*%
X172580000Y-126000000D03*
D22*
X167500000Y-126000000D03*
%TD*%
%TO.C,J4*%
X167500000Y-138750000D03*
D21*
X172580000Y-138750000D03*
%TD*%
D22*
%TO.C,J5*%
X48250000Y-30250000D03*
D21*
X48250000Y-35330000D03*
%TD*%
D35*
%TO.C,J7*%
X242000000Y-31750000D03*
D36*
X242000000Y-36750000D03*
X242000000Y-41750000D03*
X242000000Y-46750000D03*
X242000000Y-51750000D03*
X242000000Y-56750000D03*
X242000000Y-61750000D03*
X242000000Y-66750000D03*
X242000000Y-71750000D03*
%TD*%
D13*
%TO.C,K1*%
X232500000Y-36550000D03*
X232500000Y-31470000D03*
X232500000Y-41630000D03*
X224880000Y-49250000D03*
D37*
X232500000Y-49250000D03*
D13*
X224880000Y-31470000D03*
X224880000Y-36550000D03*
X224880000Y-41630000D03*
%TD*%
%TO.C,K2*%
X224880000Y-64880000D03*
X224880000Y-59800000D03*
X224880000Y-54720000D03*
D37*
X232500000Y-72500000D03*
D13*
X224880000Y-72500000D03*
X232500000Y-64880000D03*
X232500000Y-54720000D03*
X232500000Y-59800000D03*
%TD*%
D21*
%TO.C,K3*%
X160750000Y-64750000D03*
D11*
X165850000Y-62210000D03*
D21*
X169650000Y-47010000D03*
X169650000Y-39410000D03*
X151850000Y-49550000D03*
G36*
G01*
X155150000Y-61210000D02*
X156150000Y-61210000D01*
G75*
G02*
X156650000Y-61710000I0J-500000D01*
G01*
X156650000Y-62710000D01*
G75*
G02*
X156150000Y-63210000I-500000J0D01*
G01*
X155150000Y-63210000D01*
G75*
G02*
X154650000Y-62710000I0J500000D01*
G01*
X154650000Y-61710000D01*
G75*
G02*
X155150000Y-61210000I500000J0D01*
G01*
G37*
%TD*%
%TO.C,K4*%
G36*
G01*
X187150000Y-61210000D02*
X188150000Y-61210000D01*
G75*
G02*
X188650000Y-61710000I0J-500000D01*
G01*
X188650000Y-62710000D01*
G75*
G02*
X188150000Y-63210000I-500000J0D01*
G01*
X187150000Y-63210000D01*
G75*
G02*
X186650000Y-62710000I0J500000D01*
G01*
X186650000Y-61710000D01*
G75*
G02*
X187150000Y-61210000I500000J0D01*
G01*
G37*
X183850000Y-49550000D03*
X201650000Y-39410000D03*
X201650000Y-47010000D03*
D11*
X197850000Y-62210000D03*
D21*
X192750000Y-64750000D03*
%TD*%
D34*
%TO.C,Q1*%
X198750000Y-118500000D03*
D38*
X196210000Y-118500000D03*
X193670000Y-118500000D03*
%TD*%
D39*
%TO.C,Q2*%
X195420000Y-145000000D03*
X197960000Y-145000000D03*
D40*
X200500000Y-145000000D03*
%TD*%
%TO.C,Q3*%
X215250000Y-145000000D03*
D39*
X212710000Y-145000000D03*
X210170000Y-145000000D03*
%TD*%
%TO.C,Q4*%
X224670000Y-145000000D03*
X227210000Y-145000000D03*
D40*
X229750000Y-145000000D03*
%TD*%
D39*
%TO.C,Q5*%
X238670000Y-145000000D03*
X241210000Y-145000000D03*
D40*
X243750000Y-145000000D03*
%TD*%
D38*
%TO.C,Q6*%
X223670000Y-118750000D03*
X226210000Y-118750000D03*
D34*
X228750000Y-118750000D03*
%TD*%
D24*
%TO.C,Q7*%
X81750000Y-123500000D03*
D25*
X86830000Y-123500000D03*
X84290000Y-120960000D03*
%TD*%
D40*
%TO.C,Q8*%
X87250000Y-145250000D03*
D39*
X84710000Y-145250000D03*
X82170000Y-145250000D03*
%TD*%
D40*
%TO.C,Q9*%
X104000000Y-145250000D03*
D39*
X101460000Y-145250000D03*
X98920000Y-145250000D03*
%TD*%
D25*
%TO.C,Q10*%
X84540000Y-91960000D03*
X87080000Y-94500000D03*
D24*
X82000000Y-94500000D03*
%TD*%
D40*
%TO.C,Q11*%
X119750000Y-145250000D03*
D39*
X117210000Y-145250000D03*
X114670000Y-145250000D03*
%TD*%
D40*
%TO.C,Q12*%
X135500000Y-145250000D03*
D39*
X132960000Y-145250000D03*
X130420000Y-145250000D03*
%TD*%
%TO.C,Q13*%
X84670000Y-64000000D03*
X87210000Y-64000000D03*
D40*
X89750000Y-64000000D03*
%TD*%
D13*
%TO.C,R1*%
X204500000Y-118500000D03*
D12*
X214660000Y-118500000D03*
%TD*%
D13*
%TO.C,R2*%
X205090000Y-125250000D03*
D12*
X215250000Y-125250000D03*
%TD*%
D13*
%TO.C,R3*%
X205750000Y-130250000D03*
D12*
X215910000Y-130250000D03*
%TD*%
D13*
%TO.C,R4*%
X43250000Y-109750000D03*
D12*
X53410000Y-109750000D03*
%TD*%
%TO.C,R6*%
X53410000Y-87000000D03*
D13*
X43250000Y-87000000D03*
%TD*%
D12*
%TO.C,R7*%
X53410000Y-102500000D03*
D13*
X43250000Y-102500000D03*
%TD*%
D12*
%TO.C,R8*%
X245660000Y-131250000D03*
D13*
X235500000Y-131250000D03*
%TD*%
D12*
%TO.C,R9*%
X75750000Y-121090000D03*
D13*
X75750000Y-131250000D03*
%TD*%
%TO.C,R10*%
X234250000Y-124750000D03*
D12*
X244410000Y-124750000D03*
%TD*%
D13*
%TO.C,R11*%
X245250000Y-118750000D03*
D12*
X235090000Y-118750000D03*
%TD*%
D13*
%TO.C,R12*%
X78500000Y-116500000D03*
D12*
X78500000Y-106340000D03*
%TD*%
%TO.C,R13*%
X73250000Y-106340000D03*
D13*
X73250000Y-116500000D03*
%TD*%
D12*
%TO.C,R14*%
X76000000Y-91840000D03*
D13*
X76000000Y-102000000D03*
%TD*%
%TO.C,R15*%
X84250000Y-116500000D03*
D12*
X84250000Y-106340000D03*
%TD*%
%TO.C,R16*%
X69910000Y-140750000D03*
D13*
X59750000Y-140750000D03*
%TD*%
D12*
%TO.C,R17*%
X213000000Y-99160000D03*
D13*
X213000000Y-89000000D03*
%TD*%
%TO.C,R18*%
X191000000Y-103000000D03*
D12*
X201160000Y-103000000D03*
%TD*%
D13*
%TO.C,R19*%
X59750000Y-146750000D03*
D12*
X69910000Y-146750000D03*
%TD*%
%TO.C,R20*%
X69910000Y-134500000D03*
D13*
X59750000Y-134500000D03*
%TD*%
D12*
%TO.C,R21*%
X84910000Y-82500000D03*
D13*
X74750000Y-82500000D03*
%TD*%
%TO.C,R22*%
X84750000Y-87750000D03*
D12*
X74590000Y-87750000D03*
%TD*%
%TO.C,R24*%
X70500000Y-44840000D03*
D13*
X70500000Y-55000000D03*
%TD*%
%TO.C,R25*%
X76000000Y-49750000D03*
D12*
X76000000Y-59910000D03*
%TD*%
%TO.C,R27*%
X128500000Y-52090000D03*
D13*
X128500000Y-62250000D03*
%TD*%
D12*
%TO.C,R28*%
X133250000Y-52090000D03*
D13*
X133250000Y-62250000D03*
%TD*%
D41*
%TO.C,R29*%
X141750000Y-32000000D03*
D32*
X141750000Y-52320000D03*
%TD*%
D12*
%TO.C,R30*%
X212500000Y-64910000D03*
D13*
X212500000Y-54750000D03*
%TD*%
%TO.C,R31*%
X89750000Y-116500000D03*
D12*
X89750000Y-106340000D03*
%TD*%
%TO.C,R32*%
X69910000Y-128500000D03*
D13*
X59750000Y-128500000D03*
%TD*%
%TO.C,R33*%
X231000000Y-99250000D03*
D12*
X231000000Y-89090000D03*
%TD*%
%TO.C,R34*%
X204000000Y-99160000D03*
D13*
X204000000Y-89000000D03*
%TD*%
D12*
%TO.C,R35*%
X231090000Y-105000000D03*
D13*
X241250000Y-105000000D03*
%TD*%
%TO.C,R36*%
X128500000Y-42250000D03*
D12*
X128500000Y-32090000D03*
%TD*%
D13*
%TO.C,R37*%
X133500000Y-67000000D03*
D12*
X143660000Y-67000000D03*
%TD*%
D13*
%TO.C,R38*%
X213750000Y-41250000D03*
D12*
X213750000Y-31090000D03*
%TD*%
D13*
%TO.C,R39*%
X64000000Y-71000000D03*
D12*
X74160000Y-71000000D03*
%TD*%
D13*
%TO.C,R40*%
X234250000Y-85000000D03*
D12*
X244410000Y-85000000D03*
%TD*%
%TO.C,R41*%
X230910000Y-80250000D03*
D13*
X220750000Y-80250000D03*
%TD*%
D12*
%TO.C,R42*%
X68160000Y-94000000D03*
D13*
X58000000Y-94000000D03*
%TD*%
D12*
%TO.C,R43*%
X57840000Y-82000000D03*
D13*
X68000000Y-82000000D03*
%TD*%
%TO.C,R44*%
X43500000Y-82000000D03*
D12*
X53660000Y-82000000D03*
%TD*%
%TO.C,R45*%
X42840000Y-94000000D03*
D13*
X53000000Y-94000000D03*
%TD*%
D12*
%TO.C,R46*%
X173000000Y-67660000D03*
D13*
X173000000Y-57500000D03*
%TD*%
%TO.C,R47*%
X204500000Y-57750000D03*
D12*
X204500000Y-67910000D03*
%TD*%
D13*
%TO.C,R48*%
X234250000Y-80250000D03*
D12*
X244410000Y-80250000D03*
%TD*%
D21*
%TO.C,SW1*%
X140750000Y-56420000D03*
D22*
X140750000Y-61500000D03*
%TD*%
D12*
%TO.C,U3*%
X104630000Y-67500000D03*
X112250000Y-64960000D03*
X104630000Y-64960000D03*
D26*
X112250000Y-67500000D03*
%TD*%
%TO.C,U4*%
X104500000Y-71250000D03*
D12*
X112120000Y-73790000D03*
X104500000Y-73790000D03*
X112120000Y-71250000D03*
%TD*%
M02*
